<?xml version="1.0" encoding="UTF-8"?>
<svg version="1.1" xmlns="http://www.w3.org/2000/svg" width="2362" height="827">
<path d="M0 0 C779.46 0 1558.92 0 2362 0 C2362 272.91 2362 545.82 2362 827 C1582.54 827 803.08 827 0 827 C0 554.09 0 281.18 0 0 Z " fill="#FEFEFE" transform="translate(0,0)"/>
<path d="M0 0 C7.65921596 4.81810509 11.03177666 11.17729092 13.50439453 19.66381836 C14.9201124 26.50645474 14.70181015 33.29534406 14.53515625 40.25 C14.51502954 41.73239733 14.49678983 43.21482151 14.48046875 44.69726562 C14.43703256 48.27791554 14.36835935 51.85752675 14.28515625 55.4375 C14.84203125 54.47070312 15.39890625 53.50390625 15.97265625 52.5078125 C30.09974898 28.26718313 49.80996829 7.95328046 77.0546875 -1.01953125 C84.0657153 -2.7262438 90.97733255 -2.74557163 98.16015625 -2.75 C99.71669922 -2.76836914 99.71669922 -2.76836914 101.3046875 -2.78710938 C116.65921788 -2.81615325 129.18662337 2.03019842 140.49609375 12.48046875 C155.05043295 27.30801227 159.5760993 47.06877429 159.45703125 67.27685547 C159.14224622 91.69455511 153.93531611 114.78253315 142.28515625 136.4375 C141.70894531 137.51 141.13273438 138.5825 140.5390625 139.6875 C127.87377823 162.25370806 108.79131369 180.57491282 84.28515625 189.4375 C83.33511719 189.83066406 82.38507813 190.22382813 81.40625 190.62890625 C64.35162116 196.75491185 42.78952776 195.6766297 26.28515625 188.4375 C25.54523438 188.15003906 24.8053125 187.86257813 24.04296875 187.56640625 C19.29498666 185.50763393 15.22019116 182.30178735 11.04296875 179.29296875 C10.39271729 178.82644897 9.74246582 178.3599292 9.07250977 177.87927246 C7.47574259 176.73338307 5.8803158 175.58562627 4.28515625 174.4375 C2.02724494 193.7963872 -0.12248654 213.11474654 -0.15234375 232.625 C-0.1668457 234.58651001 -0.1668457 234.58651001 -0.18164062 236.58764648 C-0.08356113 247.71750605 0.85437486 259.59233693 8.28515625 268.4375 C12.02823935 272.01422385 16.06015727 274.61380871 20.55078125 277.12890625 C22.66223927 278.72201083 23.38986861 279.95824192 24.28515625 282.4375 C24.91446787 290.87673019 20.57380319 297.69276461 15.59765625 304.125 C7.91520876 312.55027957 -2.58904833 316.01580623 -13.71875 316.75390625 C-21.38099594 317.06868251 -28.12076332 316.74412641 -34.71484375 312.4375 C-35.28589844 312.07527344 -35.85695313 311.71304687 -36.4453125 311.33984375 C-42.38944747 307.01016519 -44.57702111 301.03052619 -45.96484375 294.0625 C-48.93400982 272.96021257 -44.90959679 251.79854558 -41.33300781 231.04101562 C-38.06042615 211.96388084 -34.90705337 192.86462319 -31.85491943 173.7510376 C-31.60037762 172.15978288 -31.34445964 170.56874751 -31.0869751 168.97796631 C-29.50599493 159.19583189 -28.19125315 149.42012807 -27.15942383 139.56445312 C-26.59434123 134.18946845 -25.88593148 128.83467801 -25.1796875 123.4765625 C-20.39812413 86.46302241 -20.39812413 86.46302241 -31.18359375 52 C-36.31480989 46.76406516 -42.93963342 43.67021319 -49.55078125 40.7109375 C-52.05657908 39.23640665 -53.24320722 37.93650542 -54.71484375 35.4375 C-56.12919399 29.37936648 -54.25061707 24.18572594 -51.3046875 18.9140625 C-40.79253382 2.53886487 -19.0537946 -8.92275259 0 0 Z " fill="#02552F" transform="translate(881.71484375,268.5625)"/>
<path d="M0 0 C8.18369092 5.06609438 11.43627558 13.08650196 13.6875 22.125 C18.2042422 43.94316145 18.26300781 66.31360932 18.3125 88.5 C18.31545074 89.67287567 18.31840149 90.84575134 18.32144165 92.0541687 C18.33783247 120.94336248 15.81613321 149.46538981 11.30712891 177.99414062 C10.63586585 182.37816072 10.13329634 186.78442538 9.60546875 191.1875 C9.11278615 195.21511295 8.55200371 199.23174942 7.98828125 203.25 C2.82601826 234.27569657 2.82601826 234.27569657 12.125 263.4375 C17.80825391 270.9020723 25.0614246 273.87784706 33.859375 276.3125 C36.94284763 277.30281238 38.36370276 278.17366841 40 281 C41.75450602 291.07292869 37.37811361 300.43105115 31.8828125 308.58203125 C27.18696972 314.61258454 21.30348003 317.17805046 14 319 C10.65275963 319.39222876 7.36692309 319.42161894 4 319.375 C3.16210938 319.38660156 2.32421875 319.39820313 1.4609375 319.41015625 C-6.78206286 319.37187606 -14.30110966 317.61863306 -20.4375 311.8515625 C-28.78935184 301.95461807 -30.28983171 289.02378045 -30.7890625 276.6015625 C-30.96408616 273.6131955 -31.31577662 270.90514518 -32 268 C-32.72703125 269.12535156 -32.72703125 269.12535156 -33.46875 270.2734375 C-48.43380615 293.12392708 -66.99284714 313.98416552 -94.71875 320.10546875 C-111.31635271 323.26224939 -129.32497382 322.13032459 -143.6953125 312.68359375 C-157.25011242 302.78169753 -166.3029964 288.63455744 -169.14453125 271.95703125 C-174.2870924 235.2372021 -166.13772034 197.0098763 -144 167 C-143.06220703 165.72769531 -143.06220703 165.72769531 -142.10546875 164.4296875 C-128.16053256 146.30979078 -107.72431557 129.22941467 -84.50244141 125.30175781 C-61.95815713 122.58324704 -43.01206431 125.32529046 -24 138 C-24.92701513 87.68386365 -24.92701513 87.68386365 -38.875 39.70703125 C-45.89397808 23.67169054 -45.89397808 23.67169054 -44 17 C-39.68522251 7.90398258 -29.73423844 2.00670606 -20.578125 -1.34765625 C-13.78885085 -3.06554834 -6.45388285 -2.7304889 0 0 Z " fill="#010101" transform="translate(1948,141)"/>
<path d="M0 0 C1.65861577 -0.01146992 3.3171961 -0.03184198 4.97558594 -0.06152344 C31.59221789 -0.53535508 56.79419361 7.50942556 76.9440918 25.29516602 C77.86061523 26.07053711 77.86061523 26.07053711 78.7956543 26.86157227 C92.42399909 39.27643431 100.36284158 58.92591454 101.22924805 77.03344727 C101.97376887 104.28396922 93.63996542 129.06633793 74.98706055 149.43188477 C73.33631318 151.08982494 71.65026699 152.69464846 69.9440918 154.29516602 C68.77426758 155.49399414 68.77426758 155.49399414 67.58081055 156.71704102 C54.58357494 169.42544917 38.98747692 176.81948725 21.9440918 182.29516602 C19.94364572 182.96049295 17.94346611 183.62662523 15.9440918 184.29516602 C24.34923357 197.10406557 33.36666511 209.33994923 42.9440918 221.29516602 C43.81227539 222.3837793 43.81227539 222.3837793 44.69799805 223.49438477 C48.36330649 227.93869609 52.49427577 231.64777583 56.9440918 235.29516602 C57.91604492 236.10469727 58.88799805 236.91422852 59.8894043 237.74829102 C67.04658775 243.57268196 74.2274812 248.04541921 82.9440918 251.29516602 C83.65919922 251.56804443 84.37430664 251.84092285 85.11108398 252.12207031 C93.16590223 254.90521942 100.78050923 254.4455228 109.1940918 254.09008789 C110.79897461 254.05044922 110.79897461 254.05044922 112.4362793 254.01000977 C113.39904785 253.96996826 114.36181641 253.92992676 115.35375977 253.88867188 C118.71845045 254.41668413 119.82593323 255.6975777 121.9440918 258.29516602 C125.12728398 264.66155038 122.79448603 273.86701906 120.9753418 280.37719727 C117.5543245 290.05712122 111.46013012 298.03714685 102.1784668 302.67797852 C89.72889782 307.24282048 73.26816748 307.3640951 60.9440918 302.29516602 C60.00952148 301.91618164 59.07495117 301.53719727 58.11206055 301.14672852 C45.3741221 295.37041567 34.68313103 286.11112499 25.9440918 275.29516602 C25.14616211 274.3090332 24.34823242 273.32290039 23.52612305 272.30688477 C5.28746473 249.33889579 -9.26946068 223.1463167 -21.5559082 196.60766602 C-22.04808838 195.54572021 -22.54026855 194.48377441 -23.04736328 193.38964844 C-34.46710684 168.31744873 -34.46710684 168.31744873 -30.1730957 155.70141602 C-27.45345728 150.87450809 -24.05444838 148.52665717 -19.0559082 146.29516602 C-15.59008303 145.44954013 -12.3003157 145.14343844 -8.73950195 145.04907227 C-7.73395264 145.01789307 -6.72840332 144.98671387 -5.69238281 144.95458984 C-4.63672119 144.92260498 -3.58105957 144.89062012 -2.4934082 144.85766602 C15.68892592 144.15943629 33.56459515 141.96657896 46.9440918 128.29516602 C56.77489668 116.71834945 60.03092791 104.2779781 58.9440918 89.29516602 C56.87236556 78.1502773 52.04999402 70.03977616 42.9440918 63.29516602 C20.64907719 50.18045154 -5.35710572 49.56614415 -30.0559082 55.29516602 C-31.17046387 55.55088379 -32.28501953 55.80660156 -33.43334961 56.07006836 C-36.64174102 56.80806346 -39.84915654 57.55008307 -43.0559082 58.29516602 C-43.14565918 59.48215088 -43.23541016 60.66913574 -43.32788086 61.89208984 C-45.13059649 85.50431387 -47.2544803 109.03646131 -50.1184082 132.54516602 C-53.36198034 159.37874326 -56.27258097 185.99177179 -56.4309082 213.04516602 C-56.4389447 213.80263123 -56.4469812 214.56009644 -56.45526123 215.34051514 C-56.59895158 232.99797907 -54.7966821 250.09000332 -42.3684082 263.67016602 C-41.62204102 264.42040039 -40.87567383 265.17063477 -40.10668945 265.94360352 C-35.80343988 270.87799636 -34.41896326 275.3642377 -34.6496582 281.77563477 C-35.75600667 288.63712284 -40.63201602 293.4353954 -45.83325195 297.69360352 C-56.56073439 305.4234239 -69.01878312 307.43275449 -82.0559082 306.29516602 C-88.56487961 305.08867443 -93.6561701 302.27991085 -98.0559082 297.29516602 C-100.4211492 293.69373634 -100.71377809 289.7340213 -101.1809082 285.54516602 C-101.26727539 284.88645508 -101.35364258 284.22774414 -101.44262695 283.54907227 C-103.11061348 269.22556892 -101.72083824 255.25250774 -99.8684082 241.04516602 C-99.64134448 239.24398006 -99.41495728 237.44270871 -99.18920898 235.64135742 C-97.62071663 223.22777811 -95.88441238 210.83937568 -94.11404419 198.45327759 C-92.09579383 184.2772331 -90.61459696 170.08215643 -89.36547852 155.81835938 C-89.18919289 153.81206768 -89.00613706 151.80627747 -88.80215454 149.8026123 C-88.17656053 143.48133342 -87.90854706 137.24695677 -87.9230957 130.89672852 C-87.92213898 129.94108002 -87.92118225 128.98543152 -87.92019653 128.00082397 C-87.91952089 125.98907403 -87.92133182 123.97732183 -87.92553711 121.96557617 C-87.93083424 118.96210534 -87.92560185 115.95878817 -87.91918945 112.95532227 C-87.9152132 100.04125753 -88.32152428 87.18786959 -89.0559082 74.29516602 C-90.78507487 74.81599935 -92.51424154 75.33683268 -94.2434082 75.85766602 C-98.2600153 77.06748743 -101.00649983 77.56984935 -105.0559082 76.29516602 C-110.49500355 70.46756386 -109.35192967 62.63634954 -109.14038086 55.19946289 C-108.71269627 45.55801849 -104.57617501 37.2587863 -97.4934082 30.67016602 C-79.9568169 16.54162925 -58.42504343 8.57739746 -36.7434082 3.54516602 C-35.83631104 3.3341626 -34.92921387 3.12315918 -33.99462891 2.90576172 C-22.68392561 0.39192825 -11.54296343 0.05525107 0 0 Z " fill="#010101" transform="translate(484.055908203125,154.704833984375)"/>
<path d="M0 0 C2.32778824 0.00316077 4.65430105 -0.02040191 6.98193359 -0.0456543 C27.51597887 -0.13214688 49.6706143 4.15237233 65.00537109 18.78833008 C70.82551612 25.18878282 70.91139208 32.14114697 70.77880859 40.40551758 C70.43439797 44.66175256 69.755459 48.66638613 68.77490234 52.81567383 C68.55229736 53.80265259 68.55229736 53.80265259 68.32519531 54.80957031 C67.02025883 59.80544885 64.95611671 62.662404 61.46240234 66.31567383 C57.80600196 68.14387402 53.42973363 66.77344282 49.46240234 66.31567383 C47.91980057 77.4467261 47.08947018 88.39810034 47.09179688 99.63720703 C47.08738379 102.01316065 47.0507488 104.38730621 47.01318359 106.76293945 C46.90998072 120.67184423 48.76599716 133.55084978 58.46240234 144.31567383 C62.4685298 148.08115052 66.54822376 149.69548423 71.64990234 151.44067383 C79.21444873 154.06772021 79.21444873 154.06772021 81.46240234 156.31567383 C82.73567196 167.84124429 80.24915187 177.04993196 73.46240234 186.31567383 C68.95047369 191.8302533 63.31561549 194.33187473 56.52490234 196.06567383 C44.36241412 197.05853001 34.40321551 195.95333437 24.46240234 188.31567383 C19.66549367 183.43659113 16.91825881 177.62449621 14.46240234 171.31567383 C14.16205078 170.6530957 13.86169922 169.99051758 13.55224609 169.30786133 C10.53180852 161.91832568 11.20290471 154.14865793 11.46240234 146.31567383 C10.80240234 146.31567383 10.14240234 146.31567383 9.46240234 146.31567383 C9.09115234 147.36368164 9.09115234 147.36368164 8.71240234 148.43286133 C-0.68675234 170.10966182 -21.06841484 184.89203845 -42.34619141 193.44458008 C-50.39697239 196.25488643 -58.26587737 196.5257483 -66.72509766 196.56567383 C-68.33481445 196.59661133 -68.33481445 196.59661133 -69.97705078 196.62817383 C-85.47486625 196.70317838 -98.79796439 191.37326215 -110.53759766 181.31567383 C-126.75270881 164.46737498 -129.04194504 143.5362761 -128.62207031 121.2487793 C-127.63296546 86.90454311 -109.77210931 55.5802815 -85.41259766 32.19067383 C-61.08823261 10.94180321 -32.18266802 -0.09102577 0 0 Z " fill="#02552F" transform="translate(1418.53759765625,265.684326171875)"/>
<path d="M0 0 C4.14840212 0.39135869 6.11083557 1.69295638 9.3125 4.3125 C12.57334508 9.33865621 11.68119492 15.41835212 11.6875 21.1875 C11.71199219 22.35925781 11.73648438 23.53101563 11.76171875 24.73828125 C11.78395113 31.2671907 11.55357589 35.08104104 7.3125 40.3125 C6.32495131 43.32077552 6.32495131 43.32077552 5.75 46.375 C4.36487007 53.05975751 2.32825602 56.54050033 -3.06640625 60.7109375 C-5.84971508 63.46071248 -7.53566353 66.88505918 -9.390625 70.30078125 C-9.81859375 70.96464844 -10.2465625 71.62851562 -10.6875 72.3125 C-11.3475 72.3125 -12.0075 72.3125 -12.6875 72.3125 C-13.0175 73.3025 -13.3475 74.2925 -13.6875 75.3125 C-16.34999184 77.16964307 -19.12422326 78.76014324 -21.92578125 80.3984375 C-25.58959037 82.93771115 -28.20188858 85.35448986 -29.296875 89.76953125 C-29.36648438 90.93548828 -29.36648438 90.93548828 -29.4375 92.125 C-29.49421875 92.91519531 -29.5509375 93.70539063 -29.609375 94.51953125 C-29.64804688 95.40705078 -29.64804688 95.40705078 -29.6875 96.3125 C-28.6975 96.6425 -27.7075 96.9725 -26.6875 97.3125 C-24.44637375 99.47634604 -22.29562371 101.71875707 -20.1328125 103.9609375 C-16.75440852 106.74975567 -14.07097353 106.75186814 -9.81054688 106.4453125 C-9.00681641 106.36023438 -8.20308594 106.27515625 -7.375 106.1875 C-6.55193359 106.125625 -5.72886719 106.06375 -4.88085938 106 C-0.96186389 105.99902649 -0.96186389 105.99902649 2.3125 104.3125 C2.54442865 102.79780552 2.72465238 101.27495438 2.875 99.75 C2.95878906 98.92371094 3.04257813 98.09742188 3.12890625 97.24609375 C3.18949219 96.60800781 3.25007813 95.96992187 3.3125 95.3125 C4.6325 95.6425 5.9525 95.9725 7.3125 96.3125 C7.3125 96.9725 7.3125 97.6325 7.3125 98.3125 C8.3025 98.3125 9.2925 98.3125 10.3125 98.3125 C10.6425 96.9925 10.9725 95.6725 11.3125 94.3125 C12.9625 93.9825 14.6125 93.6525 16.3125 93.3125 C17.20148858 96.5721248 17.271671 98.54930818 16.6875 101.9375 C16.501875 103.608125 16.501875 103.608125 16.3125 105.3125 C17.6037354 106.93735459 17.6037354 106.93735459 19.3125 108.3125 C19.60125 109.26125 19.89 110.21 20.1875 111.1875 C21.11629253 114.49919045 21.11629253 114.49919045 23.9375 116.8125 C26.3125 119.3125 26.3125 119.3125 26.625 122.625 C26.521875 123.511875 26.41875 124.39875 26.3125 125.3125 C22.3525 124.8175 22.3525 124.8175 18.3125 124.3125 C17.9825 123.3225 17.6525 122.3325 17.3125 121.3125 C16.3225 121.3125 15.3325 121.3125 14.3125 121.3125 C14.6425 124.2825 14.9725 127.2525 15.3125 130.3125 C14.6525 130.3125 13.9925 130.3125 13.3125 130.3125 C12.9825 131.3025 12.6525 132.2925 12.3125 133.3125 C11.3225 133.3125 10.3325 133.3125 9.3125 133.3125 C9.3125 129.0225 9.3125 124.7325 9.3125 120.3125 C3.86496299 118.80342387 3.86496299 118.80342387 1.37109375 120.2734375 C0.83613281 120.74007812 0.30117187 121.20671875 -0.25 121.6875 C-3.03542985 123.92203373 -5.04246139 124.98113285 -8.6875 125.3125 C-8.6875 125.9725 -8.6875 126.6325 -8.6875 127.3125 C-15.03929906 130.55597186 -20.44028001 131.27777727 -27.4375 129.6875 C-31.48734751 127.21259319 -34.17544728 123.84865817 -35.6875 119.3125 C-36.6775 118.9825 -37.6675 118.6525 -38.6875 118.3125 C-39.875 115.75 -39.875 115.75 -40.6875 113.3125 C-43.47838242 113.12644117 -45.93351 112.96959074 -48.6875 113.3125 C-50.06599103 114.59909163 -51.39279025 115.94163085 -52.6875 117.3125 C-56.61395612 119.2096261 -60.68108179 120.86817209 -64.9453125 121.8125 C-65.52023437 121.9775 -66.09515625 122.1425 -66.6875 122.3125 C-67.120625 123.2096875 -67.120625 123.2096875 -67.5625 124.125 C-69.20516694 127.3190746 -71.63833618 128.5338211 -74.6875 130.3125 C-75.3475 130.3125 -76.0075 130.3125 -76.6875 130.3125 C-76.6875 130.9725 -76.6875 131.6325 -76.6875 132.3125 C-78.57091969 133.92643669 -80.44477297 135.40826022 -82.4375 136.875 C-82.97632813 137.28685547 -83.51515625 137.69871094 -84.0703125 138.12304688 C-86.94216832 140.26292969 -89.24930363 141.46901725 -92.6875 142.3125 C-93.0175 143.3025 -93.3475 144.2925 -93.6875 145.3125 C-97.84548277 147.68849015 -102.28545156 149.43755344 -106.6875 151.3125 C-107.7703125 151.9003125 -107.7703125 151.9003125 -108.875 152.5 C-110.6875 153.3125 -110.6875 153.3125 -114.6875 153.3125 C-114.6875 153.9725 -114.6875 154.6325 -114.6875 155.3125 C-116.80900063 155.96973723 -118.93494314 156.61264022 -121.0625 157.25 C-122.83753906 157.78947266 -122.83753906 157.78947266 -124.6484375 158.33984375 C-143.43124939 163.3372573 -163.37731933 160.55467851 -181.6875 155.3125 C-181.6875 154.6525 -181.6875 153.9925 -181.6875 153.3125 C-185.9775 153.3125 -190.2675 153.3125 -194.6875 153.3125 C-195.3475 154.9625 -196.0075 156.6125 -196.6875 158.3125 C-198.33101457 159.67426922 -200.00272656 161.00212066 -201.6875 162.3125 C-204.97080419 165.79393461 -208.03179412 169.32894119 -210.6875 173.3125 C-211.3475 173.3125 -212.0075 173.3125 -212.6875 173.3125 C-212.6875 173.9725 -212.6875 174.6325 -212.6875 175.3125 C-218.02276472 180.46379008 -225.80905617 185.57824975 -233.375 186 C-240.69293516 185.5611611 -247.81490775 182.70000103 -254.6875 180.3125 C-254.6875 181.6325 -254.6875 182.9525 -254.6875 184.3125 C-253.0375 184.9725 -251.3875 185.6325 -249.6875 186.3125 C-249.5625 188.6875 -249.5625 188.6875 -249.6875 191.3125 C-250.3475 191.9725 -251.0075 192.6325 -251.6875 193.3125 C-257.78633958 193.19521462 -260.45143342 191.34192919 -264.6875 187.3125 C-264.3575 188.26125 -264.0275 189.21 -263.6875 190.1875 C-262.36915679 194.7922845 -262.09662481 199.55943043 -262.6875 204.3125 C-264.6875 206.3125 -264.6875 206.3125 -267.3125 206.4375 C-268.09625 206.39625 -268.88 206.355 -269.6875 206.3125 C-269.94273437 204.99185547 -269.94273437 204.99185547 -270.203125 203.64453125 C-270.44546875 202.48308594 -270.6878125 201.32164062 -270.9375 200.125 C-271.16953125 198.97644531 -271.4015625 197.82789063 -271.640625 196.64453125 C-272.75644568 193.09305722 -274.19865305 191.0430325 -276.6875 188.3125 C-279.80826869 188.62563836 -281.27322298 188.84406291 -283.390625 191.23828125 C-283.90109375 192.02589844 -284.4115625 192.81351563 -284.9375 193.625 C-288.4255855 198.42876687 -291.97938709 200.73060049 -297.6875 202.3125 C-298.6775 202.3125 -299.6675 202.3125 -300.6875 202.3125 C-300.05593005 197.25994036 -298.55290627 193.01656799 -296.6875 188.3125 C-296.0275 188.3125 -295.3675 188.3125 -294.6875 188.3125 C-294.6875 187.6525 -294.6875 186.9925 -294.6875 186.3125 C-294.0275 186.3125 -293.3675 186.3125 -292.6875 186.3125 C-292.6875 185.6525 -292.6875 184.9925 -292.6875 184.3125 C-292.048125 184.209375 -291.40875 184.10625 -290.75 184 C-289.7290625 183.6596875 -289.7290625 183.6596875 -288.6875 183.3125 C-288.3575 182.3225 -288.0275 181.3325 -287.6875 180.3125 C-287.0275 180.3125 -286.3675 180.3125 -285.6875 180.3125 C-285.3575 178.0025 -285.0275 175.6925 -284.6875 173.3125 C-286.35361905 173.269779 -288.02132885 173.27186168 -289.6875 173.3125 C-290.0175 173.6425 -290.3475 173.9725 -290.6875 174.3125 C-293.38404854 174.38569621 -296.05441458 174.40492537 -298.75 174.375 C-299.50861328 174.37048828 -300.26722656 174.36597656 -301.04882812 174.36132812 C-302.92841871 174.3495068 -304.80796899 174.33157078 -306.6875 174.3125 C-306.6875 171.3125 -306.6875 171.3125 -304.15625 168.69140625 C-300.6567712 165.95513346 -297.62625769 165.5651518 -293.1875 165.25 C-287.75374784 164.77641323 -282.96213074 163.9168428 -277.75 162.1875 C-272.31940511 160.52037579 -267.44759493 159.9387305 -261.8125 159.9375 C-261.12293213 159.9360498 -260.43336426 159.93459961 -259.72290039 159.93310547 C-255.48537345 160.02392784 -251.7880197 160.75189019 -247.71435547 161.88037109 C-244.34857855 162.59796025 -241.11688687 162.4349781 -237.6875 162.3125 C-237.28917969 161.31089844 -236.89085937 160.30929687 -236.48046875 159.27734375 C-235.94535964 157.93487704 -235.41020072 156.59243019 -234.875 155.25 C-234.61396484 154.59322266 -234.35292969 153.93644531 -234.08398438 153.25976562 C-232.35008787 148.91432129 -230.5466635 144.60588357 -228.6875 140.3125 C-229.615625 140.168125 -230.54375 140.02375 -231.5 139.875 C-234.6875 139.3125 -234.6875 139.3125 -237.6875 138.3125 C-239.21953185 138.17695597 -240.75601871 138.08850683 -242.29296875 138.03125 C-243.19466797 137.99386719 -244.09636719 137.95648437 -245.02539062 137.91796875 C-245.96576172 137.88316406 -246.90613281 137.84835937 -247.875 137.8125 C-258.26407619 137.4199107 -258.26407619 137.4199107 -262.7109375 136.7890625 C-267.51086237 136.1335581 -272.28783463 136.16657499 -277.125 136.1875 C-278.01509766 136.18363281 -278.90519531 136.17976562 -279.82226562 136.17578125 C-289.80556475 136.16704147 -289.80556475 136.16704147 -299.5 138.25 C-302.47423681 139.24141227 -305.09406633 139.69183756 -308.1875 140.125 C-314.26756152 141.0702832 -319.73184874 142.98233766 -325.4765625 145.14453125 C-328.09107298 146.09555149 -330.60845119 146.87173587 -333.3125 147.5 C-336.52946314 148.13662347 -336.52946314 148.13662347 -338.65625 149.3125 C-341.30364798 150.61583439 -344.03284339 151.0164204 -346.90625 151.60546875 C-351.61079402 152.80142727 -356.11143775 154.57903863 -360.6484375 156.2890625 C-363.6875 157.3125 -363.6875 157.3125 -366.6875 157.3125 C-366.6875 157.9725 -366.6875 158.6325 -366.6875 159.3125 C-369.90201269 160.91975635 -373.12362536 160.36998185 -376.6875 160.3125 C-376.6875 160.9725 -376.6875 161.6325 -376.6875 162.3125 C-381.04631158 163.91837795 -385.35274875 164.88901857 -389.8984375 165.75390625 C-392.74616655 166.32424974 -395.55366576 166.99891579 -398.375 167.6875 C-407.59629616 169.84943068 -416.94997243 171.35257142 -426.29003906 172.90429688 C-428.08813049 173.21044849 -429.88005401 173.55319897 -431.66796875 173.9140625 C-456.30288539 177.1647242 -477.67354404 172.20265843 -498.6875 159.3125 C-499.39519531 158.90257812 -500.10289062 158.49265625 -500.83203125 158.0703125 C-510.13141996 152.57780185 -517.92255079 145.46925785 -524.91015625 137.28125 C-526.54184462 135.23356706 -526.54184462 135.23356706 -528.6875 134.3125 C-529.64892578 132.76196289 -529.64892578 132.76196289 -530.6328125 130.78515625 C-531.16455078 129.72071289 -531.16455078 129.72071289 -531.70703125 128.63476562 C-532.07183594 127.88904297 -532.43664062 127.14332031 -532.8125 126.375 C-533.37130859 125.2622168 -533.37130859 125.2622168 -533.94140625 124.12695312 C-536.6875 118.57944139 -536.6875 118.57944139 -536.6875 116.3125 C-537.3475 116.3125 -538.0075 116.3125 -538.6875 116.3125 C-539.07421875 115.2503125 -539.4609375 114.188125 -539.859375 113.09375 C-540.38426793 111.66624375 -540.91038897 110.2391887 -541.4375 108.8125 C-541.70900879 108.07725098 -541.98051758 107.34200195 -542.26025391 106.58447266 C-543.67057779 102.82388698 -545.13639703 99.22099825 -547.0625 95.6875 C-548.73809441 92.20741931 -549.06803853 90.11788532 -548.6875 86.3125 C-538.67656424 90.5478959 -532.93031318 100.34136583 -527.21484375 109.05859375 C-521.27188441 117.82863861 -514.27692133 125.93389593 -506.6875 133.3125 C-506.23761719 133.80105469 -505.78773438 134.28960938 -505.32421875 134.79296875 C-503.43556044 136.54640093 -501.52847626 137.61370642 -499.25 138.8125 C-496.98662358 140.00737892 -494.94491689 141.0958211 -492.984375 142.74609375 C-489.40378712 145.18795725 -485.44952768 146.45288153 -481.375 147.875 C-480.49231445 148.1851001 -479.60962891 148.4952002 -478.70019531 148.81469727 C-471.06895084 151.38807196 -463.71258189 152.71669847 -455.6875 153.3125 C-455.6875 153.9725 -455.6875 154.6325 -455.6875 155.3125 C-434.18855418 154.74492281 -414.72434505 151.25814545 -394.6875 143.3125 C-393.87925781 143.00570312 -393.07101562 142.69890625 -392.23828125 142.3828125 C-387.75865679 140.65524432 -383.63709598 138.79150134 -379.53125 136.3125 C-376.51159303 134.67471995 -373.29454105 133.54653992 -370.09375 132.3125 C-367.99218785 131.43912352 -366.13079517 130.48581029 -364.1875 129.3125 C-360.68088087 127.20027765 -356.9984746 125.79136697 -353.18359375 124.328125 C-350.163374 123.09924059 -347.32764937 121.62407199 -344.4765625 120.046875 C-342.6875 119.3125 -342.6875 119.3125 -338.6875 119.3125 C-338.6875 118.6525 -338.6875 117.9925 -338.6875 117.3125 C-337.375 116.875 -336.0625 116.4375 -334.75 116 C-333.52410156 115.59007812 -333.52410156 115.59007812 -332.2734375 115.171875 C-330.5932249 114.61349619 -328.91101885 114.06106801 -327.2265625 113.515625 C-326.45054687 113.26296875 -325.67453125 113.0103125 -324.875 112.75 C-324.16730469 112.52183594 -323.45960938 112.29367187 -322.73046875 112.05859375 C-320.6610715 111.35409088 -320.6610715 111.35409088 -318.72265625 110.28125 C-316.44501824 109.19707682 -314.42183308 108.79037416 -311.9375 108.375 C-308.61695793 107.76639625 -305.67212389 106.99649188 -302.5625 105.6875 C-298.48238048 104.03047187 -295.06062563 104.07822541 -290.6875 104.3125 C-290.6875 103.6525 -290.6875 102.9925 -290.6875 102.3125 C-275.63496625 99.27247848 -260.48306813 99.2234259 -245.1875 99.1875 C-243.91148926 99.18282715 -242.63547852 99.1781543 -241.32080078 99.17333984 C-235.11490479 99.1839093 -229.03030163 99.36410278 -222.86376953 100.06787109 C-212.65180471 101.44420418 -212.65180471 101.44420418 -203.5 98 C-202.901875 97.113125 -202.30375 96.22625 -201.6875 95.3125 C-200 93.5 -200 93.5 -198.6875 92.3125 C-198.0275 92.3125 -197.3675 92.3125 -196.6875 92.3125 C-196.6875 91.6525 -196.6875 90.9925 -196.6875 90.3125 C-195.0375 89.6525 -193.3875 88.9925 -191.6875 88.3125 C-192.35892902 85.19846168 -192.35892902 85.19846168 -194.76171875 84.1015625 C-195.62410156 83.71742188 -196.48648437 83.33328125 -197.375 82.9375 C-201.79107764 80.84033831 -205.18462966 78.72318955 -208.6875 75.3125 C-208.6875 74.6525 -208.6875 73.9925 -208.6875 73.3125 C-213.41994403 74.23585821 -213.41994403 74.23585821 -217.125 77 C-218.6875 78.3125 -218.6875 78.3125 -222.5625 78.1875 C-226.12859963 77.60192275 -228.72718353 76.44022746 -231.6875 74.3125 C-231.375 72.4375 -231.375 72.4375 -230.6875 70.3125 C-226.519358 67.53373866 -222.83197369 67.92914217 -217.9140625 67.75390625 C-214.39190643 67.27206165 -212.45410361 66.53085923 -209.6875 64.3125 C-208.95212278 60.20924796 -208.95212278 60.20924796 -209.6875 56.3125 C-212.50857501 53.57270797 -212.50857501 53.57270797 -215.6875 51.3125 C-216.9375 48.625 -216.9375 48.625 -217.6875 46.3125 C-218.3475 45.6525 -219.0075 44.9925 -219.6875 44.3125 C-219.95741906 41.62410615 -219.77487357 39.02108064 -219.6875 36.3125 C-217.3125 36.625 -217.3125 36.625 -214.6875 37.3125 C-214.0275 38.3025 -213.3675 39.2925 -212.6875 40.3125 C-212.03910156 40.6115625 -211.39070313 40.910625 -210.72265625 41.21875 C-208.06984683 42.64444412 -207.44131463 44.13642802 -206.125 46.8125 C-204.48279384 50.12921801 -203.87132429 51.18995048 -200.6875 53.3125 C-200.6875 53.9725 -200.6875 54.6325 -200.6875 55.3125 C-199.3675 55.3125 -198.0475 55.3125 -196.6875 55.3125 C-196.70103516 54.44238281 -196.70103516 54.44238281 -196.71484375 53.5546875 C-196.57996175 50.00084003 -196.44308346 47.30229396 -194.23828125 44.4140625 C-190.97637105 41.51301438 -188.17524708 39.58448467 -183.6875 39.3125 C-181.65952685 43.36844629 -181.45150218 45.93896926 -182.6875 50.3125 C-184.125 51.875 -184.125 51.875 -185.6875 53.3125 C-186.87777984 55.91165538 -186.87777984 55.91165538 -187.6875 58.3125 C-183.27227891 57.04275028 -183.27227891 57.04275028 -179.6875 54.3125 C-173.36491935 53.97379032 -173.36491935 53.97379032 -170.6875 55.3125 C-171.00907204 58.28704134 -171.30889742 59.90585278 -173.375 62.125 C-176.28774146 63.6207321 -178.45749584 63.53272756 -181.6875 63.3125 C-179.15952912 66.37038918 -176.62309991 67.18099814 -172.875 68.3125 C-161.63858696 71.88586957 -161.63858696 71.88586957 -158.6875 76.3125 C-157.72845425 83.02582023 -159.69596246 86.73679066 -163.0859375 92.48046875 C-165.41847088 96.60507046 -167.01841736 100.88301145 -168.6875 105.3125 C-161.7575 104.3225 -161.7575 104.3225 -154.6875 103.3125 C-154.6875 102.6525 -154.6875 101.9925 -154.6875 101.3125 C-146.28865717 98.26738835 -138.89321574 96.83087776 -130 96.5859375 C-126.77109222 96.3194003 -124.627894 95.58833197 -121.6875 94.3125 C-120.40875 94.18875 -119.13 94.065 -117.8125 93.9375 C-113.33030255 93.48758245 -110.48449176 91.66663489 -106.6875 89.3125 C-106.0275 89.3125 -105.3675 89.3125 -104.6875 89.3125 C-104.6875 88.6525 -104.6875 87.9925 -104.6875 87.3125 C-102.08358461 86.33266072 -99.47938032 85.35360206 -96.875 84.375 C-96.13701172 84.09720703 -95.39902344 83.81941406 -94.63867188 83.53320312 C-93.92646484 83.26572266 -93.21425781 82.99824219 -92.48046875 82.72265625 C-91.8258667 82.47652588 -91.17126465 82.23039551 -90.49682617 81.97680664 C-88.90438185 81.39212967 -87.29683324 80.84894441 -85.6875 80.3125 C-85.6875 78.9925 -85.6875 77.6725 -85.6875 76.3125 C-86.43515625 76.20292969 -87.1828125 76.09335937 -87.953125 75.98046875 C-88.93796875 75.82191406 -89.9228125 75.66335938 -90.9375 75.5 C-91.91203125 75.34917969 -92.8865625 75.19835937 -93.890625 75.04296875 C-96.85876651 74.26776978 -98.49284372 73.4401832 -100.6875 71.3125 C-101.19770728 67.23084173 -101.00111802 65.78292703 -98.6875 62.3125 C-98.51193453 60.0882852 -98.51193453 60.0882852 -98.8125 57.75 C-98.87695312 56.96496094 -98.94140625 56.17992187 -99.0078125 55.37109375 C-99.48861241 53.1229417 -99.48861241 53.1229417 -101.6953125 52.23046875 C-102.35273437 51.92753906 -103.01015625 51.62460937 -103.6875 51.3125 C-104.4375 48.1875 -104.4375 48.1875 -104.6875 45.3125 C-102.625 44.375 -102.625 44.375 -99.6875 44.3125 C-97.75878491 45.95124882 -96.16356602 47.71583693 -94.53125 49.6484375 C-92.29610415 51.66575134 -90.63594391 51.95909063 -87.6875 52.3125 C-87.54054688 51.29929687 -87.54054688 51.29929687 -87.390625 50.265625 C-86.16614897 42.96099216 -86.16614897 42.96099216 -83.75 39.6875 C-81.6875 38.3125 -81.6875 38.3125 -78.6875 38.3125 C-77.35525538 42.30923385 -77.55307887 46.14544503 -77.6875 50.3125 C-78.0175 50.9725 -78.3475 51.6325 -78.6875 52.3125 C-79.3475 52.3125 -80.0075 52.3125 -80.6875 52.3125 C-81.0175 54.2925 -81.3475 56.2725 -81.6875 58.3125 C-80.47513672 58.27769531 -80.47513672 58.27769531 -79.23828125 58.2421875 C-78.16964844 58.22414063 -77.10101562 58.20609375 -76 58.1875 C-74.94425781 58.16429687 -73.88851563 58.14109375 -72.80078125 58.1171875 C-69.64295995 58.31529423 -67.56323086 59.06814627 -64.6875 60.3125 C-63.6975 60.3125 -62.7075 60.3125 -61.6875 60.3125 C-60.28869049 58.57506895 -60.28869049 58.57506895 -59.125 56.375 C-56.87938192 52.40844096 -56.87938192 52.40844096 -54.6875 51.3125 C-54.0307717 49.44082435 -53.46350417 47.53753272 -52.9375 45.625 C-50.76928763 38.21694106 -47.84907017 31.34172434 -44.6875 24.3125 C-44.0275 24.3125 -43.3675 24.3125 -42.6875 24.3125 C-42.6875 23.6525 -42.6875 22.9925 -42.6875 22.3125 C-41.95144531 21.96058594 -41.21539063 21.60867188 -40.45703125 21.24609375 C-33.87105213 18.13313109 -33.87105213 18.13313109 -29.375 12.6875 C-27.05870395 8.82700658 -24.17533565 8.27830639 -19.9375 7.125 C-18.71160156 6.8259375 -17.48570312 6.526875 -16.22265625 6.21875 C-10.73074011 4.81087758 -5.28740481 0.61481451 0 0 Z " fill="#045731" transform="translate(1442.6875,531.6875)"/>
<path d="M0 0 C10.47165477 9.06711092 17.39532844 19.23565725 18.51953125 33.3203125 C18.97162059 50.62142391 13.74221438 66.15877955 1.72509766 78.94824219 C-15.21303988 96.18911233 -37.1308072 104.76417371 -61.1184082 105.31640625 C-78.28203831 105.39865802 -95.09980381 103.66393288 -109.75390625 93.89453125 C-107.87601639 108.05283246 -104.44544795 119.15362692 -93.50390625 128.8984375 C-79.33394484 139.68904956 -63.91646673 140.36975641 -46.75390625 138.89453125 C-41.5463519 138.17025976 -36.67776436 136.72750033 -31.75390625 134.89453125 C-30.71492187 134.52070313 -29.6759375 134.146875 -28.60546875 133.76171875 C-19.61141826 130.27045493 -10.99159303 125.72566417 -3.62890625 119.45703125 C0.12258397 116.54355659 3.2748271 116.08082643 7.97265625 116.35546875 C11.46682522 117.18398304 13.13021867 119.09611582 15.24609375 121.89453125 C15.57609375 122.22453125 15.90609375 122.55453125 16.24609375 122.89453125 C17.2604714 130.6291608 15.25555461 135.81173222 10.68115234 142.09619141 C-5.32245401 162.15106796 -26.07176781 175.3517959 -50.75390625 181.89453125 C-51.40037109 182.08072021 -52.04683594 182.26690918 -52.71289062 182.45874023 C-59.92628587 184.3387019 -67.21429632 184.33548343 -74.62890625 184.33203125 C-75.65670197 184.333134 -75.65670197 184.333134 -76.70526123 184.33425903 C-97.94749151 184.27448371 -116.6574086 179.10592204 -132.09375 163.78125 C-148.88722313 145.55749575 -151.70974264 120.59199207 -150.92871094 96.8671875 C-149.35273728 70.06683102 -138.62592201 43.88754499 -120.75390625 23.89453125 C-120.25632812 23.26675781 -119.75875 22.63898438 -119.24609375 21.9921875 C-104.97732823 4.01354294 -80.04878976 -8.9030638 -57.49609375 -11.69140625 C-37.2965441 -13.69978677 -16.76884158 -12.82043349 0 0 Z " fill="#010101" transform="translate(781.75390625,278.10546875)"/>
<path d="M0 0 C11.16883631 10.11614139 14.68970179 23.90448954 16.09765625 38.265625 C16.68488591 52.85602341 12.47382606 67.26851738 8.1875 81.03515625 C4.07806208 94.28402819 1.74646551 111.11552571 7.57421875 124.1875 C12.80493701 133.76625282 19.47691843 138.01607009 29.26171875 142.5390625 C32.73949901 144.26387255 34.52467425 145.66456529 35.82421875 149.4765625 C35.64328716 159.97059495 31.55535423 168.79442803 24.33984375 176.30859375 C15.19392213 184.19056036 5.42099788 185.10975368 -6.17578125 184.4765625 C-15.46090844 182.99795925 -23.04657949 178.40788188 -28.98828125 171.1640625 C-36.82834088 160.34768394 -38.56851818 149.32617566 -38.55078125 136.2265625 C-38.54916992 134.98817627 -38.54755859 133.74979004 -38.54589844 132.47387695 C-38.40441254 121.7507716 -36.90998773 111.81960794 -34.17578125 101.4765625 C-33.911604 100.46746826 -33.911604 100.46746826 -33.64208984 99.43798828 C-32.81949443 96.32393256 -31.97388316 93.21635446 -31.125 90.109375 C-25.46975554 69.23629659 -25.46975554 69.23629659 -29.05078125 48.6640625 C-33.18584268 43.52411184 -38.91194842 41.87368284 -45.2578125 41.1015625 C-59.23586395 40.56069473 -70.86587575 45.61427873 -81.5078125 54.40234375 C-88.38539366 60.79813289 -93.28603589 68.53464436 -98.17578125 76.4765625 C-98.748125 77.39453613 -98.748125 77.39453613 -99.33203125 78.33105469 C-106.24854174 89.55237249 -111.2996939 101.51520609 -116.10693359 113.76513672 C-117.00643753 116.04697561 -117.93850787 118.31077542 -118.8828125 120.57421875 C-122.10905758 128.96989398 -122.60139802 136.66155478 -122.80395508 145.54394531 C-123.15113812 157.85335756 -126.82637652 168.56351467 -135.80078125 177.2265625 C-142.98608291 183.06295065 -150.47662341 184.80746598 -159.55078125 184.9140625 C-160.22882813 184.92429443 -160.906875 184.93452637 -161.60546875 184.94506836 C-167.11800797 184.84731376 -170.327116 183.32522775 -174.17578125 179.4765625 C-174.5462087 173.14225318 -172.84109412 166.82145396 -171.3203125 160.72265625 C-169.29335259 152.34299348 -167.74850102 143.92464562 -166.36547852 135.41748047 C-165.98483567 133.0804073 -165.59360241 130.74527606 -165.20117188 128.41015625 C-160.82416123 102.08530777 -157.17352358 69.06007308 -169.70703125 44.47265625 C-173.10845584 40.34466154 -177.0332575 38.56964662 -181.80078125 36.2890625 C-183.52554585 35.44836733 -185.24707382 34.60099009 -186.96484375 33.74609375 C-187.72490723 33.38104736 -188.4849707 33.01600098 -189.26806641 32.63989258 C-191.17578125 31.4765625 -191.17578125 31.4765625 -193.17578125 28.4765625 C-194.17156669 21.30922311 -193.37816824 15.3826199 -189.17578125 9.4765625 C-182.12487864 0.23139559 -173.71149388 -6.93032563 -162.17578125 -9.5234375 C-153.4001948 -10.43386122 -142.42116584 -11.29492158 -135.17578125 -5.5234375 C-124.26090803 5.24073727 -123.87088056 19.11809009 -123.70727539 33.59521484 C-123.91613217 49.68638173 -127.03065888 66.9231395 -131.17578125 82.4765625 C-130.51578125 82.4765625 -129.85578125 82.4765625 -129.17578125 82.4765625 C-128.98113281 81.28417969 -128.78648438 80.09179688 -128.5859375 78.86328125 C-127.03045589 71.89967723 -123.74771715 65.64879927 -120.61328125 59.2890625 C-120.29798462 58.64316162 -119.98268799 57.99726074 -119.65783691 57.33178711 C-115.07466147 47.9583002 -110.34739145 38.92013909 -104.17578125 30.4765625 C-103.7900293 29.93725098 -103.40427734 29.39793945 -103.00683594 28.84228516 C-94.71776169 17.30226667 -85.36298324 7.00840472 -73.17578125 -0.5234375 C-72.325 -1.05710937 -71.47421875 -1.59078125 -70.59765625 -2.140625 C-48.91612983 -14.88327649 -20.74139918 -14.5227032 0 0 Z " fill="#010101" transform="translate(1714.17578125,276.5234375)"/>
<path d="M0 0 C6.77975269 4.81143739 7.7426285 12.71602098 9.05859375 20.4609375 C11.66152767 41.2652848 9.59867064 61.87976844 7.12109375 82.5859375 C6.5654742 87.35882152 6.01716185 92.13253337 5.46875 96.90625 C5.27208237 98.59406586 5.27208237 98.59406586 5.07144165 100.315979 C4.29281914 107.07972832 3.71358204 113.81069134 3.30053711 120.60620117 C2.98092477 124.3773688 2.29431768 128.029837 1.5625 131.73974609 C0.0068665 140.14046849 -0.66939987 148.72218194 -1.58447266 157.21142578 C-1.89585062 160.04620054 -2.23258989 162.87628017 -2.578125 165.70703125 C-3.86620791 176.94728417 -4.16746045 188.17275234 -4.23794556 199.47668457 C-4.24843629 201.15062799 -4.2632608 202.8245509 -4.2828064 204.49841309 C-4.4192486 217.97449572 -4.37959322 231.79970919 5.05859375 242.4609375 C8.10139397 245.14537796 11.08917996 246.34359513 14.93359375 247.5859375 C15.94164062 247.91851562 16.9496875 248.25109375 17.98828125 248.59375 C23.35844061 250.11051257 28.4397884 250.59395956 34.01171875 250.62890625 C34.664785 250.63318634 35.31785126 250.63746643 35.9907074 250.64187622 C38.09673993 250.65183441 40.2025422 250.65193379 42.30859375 250.6484375 C43.02923004 250.64750092 43.74986633 250.64656433 44.49234009 250.64559937 C67.587011 250.58040101 89.14013381 247.3895351 110.7109375 238.79296875 C122.62277108 234.05325434 122.62277108 234.05325434 128.05859375 235.4609375 C132.82247576 239.00761618 135.07746551 243.67228086 136.05859375 249.4609375 C137.04900669 258.34370359 135.25292363 266.69698 130.24609375 274.1640625 C114.46457042 293.07868237 85.80341093 300.45815035 62.18359375 302.8359375 C51.05414423 303.74513675 39.84351157 303.69802446 28.68359375 303.7734375 C27.33445892 303.78815094 27.33445892 303.78815094 25.95806885 303.80316162 C5.05191239 303.99434885 -18.7870121 302.16005908 -34.75390625 287.0859375 C-47.30205708 273.53629106 -48.7646884 255.90747773 -48.17675781 238.26708984 C-47.33140695 224.59590732 -44.97704911 210.99518075 -42.94140625 197.4609375 C-38.57882539 168.4222795 -35.66915375 140.07693074 -35.62890625 110.7109375 C-35.62532104 109.66065369 -35.62173584 108.61036987 -35.61804199 107.52825928 C-35.59802987 96.650391 -35.82750685 85.85139668 -36.8359375 75.015625 C-36.91317551 74.18387756 -36.99041351 73.35213013 -37.06999207 72.49517822 C-38.70034735 56.8054132 -44.18764823 43.86015744 -51.98925781 30.26000977 C-54.1319664 26.21138937 -54.52401043 22.97611991 -53.94140625 18.4609375 C-47.24188122 6.22890147 -34.69261218 0.68629928 -21.91015625 -3.1484375 C-14.02439667 -4.71307234 -6.97627924 -4.04066093 0 0 Z " fill="#01552F" transform="translate(1135.94140625,158.5390625)"/>
<path d="M0 0 C1.24765137 0.00418945 2.49530273 0.00837891 3.78076172 0.01269531 C32.48939762 0.36439762 32.48939762 0.36439762 40.4375 8.3125 C42.99978122 29.650842 33.86931941 57.20024443 21 74.0625 C19.8219033 75.48699601 18.6346274 76.90395938 17.4375 78.3125 C16.63892578 79.32763672 16.63892578 79.32763672 15.82421875 80.36328125 C6.80535195 91.44852326 -5.43813683 98.10347638 -19.5625 100.3125 C-31.05512708 101.09574588 -41.37962733 99.68170759 -50.5625 92.3125 C-59.10989853 84.16712635 -63.19535206 75.07614916 -63.75 63.34765625 C-64.1233719 46.21488992 -61.20176416 32.52358024 -49.08642578 19.61938477 C-41.35556228 11.81748927 -32.14837906 5.48991004 -21.5625 2.3125 C-20.42554688 1.95671875 -19.28859375 1.6009375 -18.1171875 1.234375 C-12.15957965 -0.21526095 -6.09686933 -0.02762809 0 0 Z " fill="#FDFDFD" transform="translate(1392.5625,313.6875)"/>
<path d="M0 0 C7.23387588 6.63579953 11.40047646 15.89185701 12.0546875 25.60546875 C12.49156761 43.97870446 7.73746856 59.32935262 -4.625 73.0625 C-15.9766997 83.89526485 -31.86166268 87.51719746 -47.11352539 87.42333984 C-66.18846093 86.73801282 -81.80124821 78.00982197 -96.125 65.9375 C-94.81706067 59.15812859 -92.81648069 53.13549874 -90.0625 46.8125 C-89.66401855 45.89597656 -89.26553711 44.97945313 -88.85498047 44.03515625 C-79.04193628 21.96255981 -64.94505151 2.53894359 -42.125 -7.0625 C-27.85651982 -12.12623508 -11.74858384 -9.31861109 0 0 Z " fill="#FCFDFC" transform="translate(992.125,325.0625)"/>
<path d="M0 0 C0.86109375 0.67675781 1.7221875 1.35351562 2.609375 2.05078125 C3.24359375 2.49035156 3.8778125 2.92992187 4.53125 3.3828125 C6.00111882 5.65684868 5.69218551 7.3870381 5.18798828 9.9765625 C4.02192152 14.15669043 2.29514867 18.08636566 0.546875 22.05078125 C0.143479 22.97415283 -0.25991699 23.89752441 -0.67553711 24.84887695 C-5.99257501 36.85882094 -11.48077617 48.23846154 -20.390625 58.05078125 C-21.16277344 58.90414062 -21.93492188 59.7575 -22.73046875 60.63671875 C-32.96001116 71.39955484 -46.06944269 79.95185913 -61.27905273 80.34399414 C-73.13929349 80.44627108 -81.130864 78.35268741 -89.98828125 69.95703125 C-100.49362625 57.24812608 -102.57819781 43.02662111 -101.390625 27.05078125 C-98.99188981 13.17857773 -91.07506943 1.38562263 -79.77734375 -6.85546875 C-54.4855901 -23.00933577 -23.23293786 -16.73118286 0 0 Z " fill="#FCFCFC" transform="translate(1915.390625,331.94921875)"/>
<path d="M0 0 C3.86579984 4.11520628 5.13572555 6.82784594 5.3125 12.5 C5.05629822 19.59773825 2.98392485 23.26746146 -2.0625 28.1875 C-6.94966484 32.35152337 -11.92395581 34.37544432 -18.0625 36.0625 C-19.32835937 36.41957031 -20.59421875 36.77664063 -21.8984375 37.14453125 C-25.9667728 38.14089737 -29.94538507 38.40841726 -34.125 38.375 C-34.855979 38.37081055 -35.58695801 38.36662109 -36.34008789 38.36230469 C-48.32973962 38.11896511 -60.95437122 35.80125252 -71.0625 29.0625 C-67.91713614 16.66077965 -60.05661942 6.92378884 -49.171875 0.3046875 C-33.99097574 -7.75286672 -15.02349995 -9.50466323 0 0 Z " fill="#FAFAFA" transform="translate(747.0625,314.9375)"/>
<path d="M0 0 C0.33 0 0.66 0 1 0 C1.18248086 5.29194508 0.79731405 8.96752067 -1 14 C-0.67 14.66 -0.34 15.32 0 16 C-1.093125 16.268125 -2.18625 16.53625 -3.3125 16.8125 C-6.93298346 17.62174317 -6.93298346 17.62174317 -8.4375 19.6875 C-10 21 -10 21 -13.875 20.875 C-17.44109963 20.28942275 -20.03968353 19.12772746 -23 17 C-22.6875 15.125 -22.6875 15.125 -22 13 C-17.831858 10.22123866 -14.14447369 10.61664217 -9.2265625 10.44140625 C-5.7076016 9.95999877 -3.77394591 9.20090041 -1 7 C-0.10407917 3.40080577 -0.10407917 3.40080577 0 0 Z " fill="#296E4F" transform="translate(1234,589)"/>
<path d="M0 0 C-0.66 1.98 -1.32 3.96 -2 6 C-1.01 6 -0.02 6 1 6 C1 6.66 1 7.32 1 8 C1.66 8 2.32 8 3 8 C3 7.34 3 6.68 3 6 C3.99 6.33 4.98 6.66 6 7 C2.0811294 13.33166543 -1.75551969 16.90255046 -9 19 C-9.99 19 -10.98 19 -12 19 C-11.36843005 13.94744036 -9.86540627 9.70406799 -8 5 C-7.34 5 -6.68 5 -6 5 C-6 4.34 -6 3.68 -6 3 C-5.34 3 -4.68 3 -4 3 C-4 2.34 -4 1.68 -4 1 C-2 0 -2 0 0 0 Z " fill="#0A5934" transform="translate(1154,715)"/>
<path d="M0 0 C5.29497463 2.24018157 9.96357415 6.10798057 13 11 C13 11.66 13 12.32 13 13 C12.01 13 11.02 13 10 13 C9.979375 14.27875 9.95875 15.5575 9.9375 16.875 C9.92589844 17.59429688 9.91429687 18.31359375 9.90234375 19.0546875 C9.87350758 21.08185404 9.87350758 21.08185404 11 23 C11.04022391 25.3329866 11.04320247 27.66706666 11 30 C8.08745165 26.81006609 7.08511472 23.48265498 5.82421875 19.453125 C4.26576179 14.81468437 2.18681648 10.37363295 0 6 C-0.039992 4.00039988 -0.04346799 1.99952758 0 0 Z " fill="#2A7050" transform="translate(894,618)"/>
<path d="M0 0 C2.375 0.3125 2.375 0.3125 5 1 C5.66 1.99 6.32 2.98 7 4 C7.66 4.28875 8.32 4.5775 9 4.875 C11.71440441 6.40185248 12.08583347 8.10513932 13 11 C11.68 11 10.36 11 9 11 C9.33 12.65 9.66 14.3 10 16 C9.01 16.33 8.02 16.66 7 17 C3.61018429 14.74012286 3.37425812 13.66468831 2 10 C1.34 9.34 0.68 8.68 0 8 C-0.26991906 5.31160615 -0.08737357 2.70858064 0 0 Z " fill="#115D3B" transform="translate(1223,568)"/>
<path d="M0 0 C4.16426812 0.38819449 6.16289961 1.68752021 9.125 4.5625 C12.00024349 7.5545984 12.00024349 7.5545984 16 8 C16.33 6.02 16.66 4.04 17 2 C17.33 2 17.66 2 18 2 C18 4.64 18 7.28 18 10 C13.70700357 11.26264601 11.12168689 10.62950412 7 9 C7 9.66 7 10.32 7 11 C7.66 11 8.32 11 9 11 C8.625 13.9375 8.625 13.9375 8 17 C7.34 17.33 6.68 17.66 6 18 C5.90203125 17.37351562 5.8040625 16.74703125 5.703125 16.1015625 C5.55359375 15.28429687 5.4040625 14.46703125 5.25 13.625 C5.11078125 12.81289063 4.9715625 12.00078125 4.828125 11.1640625 C3.76425813 8.38395757 2.62443811 8.20048555 0 7 C-0.8125 3.9375 -0.8125 3.9375 -1 1 C-0.67 0.67 -0.34 0.34 0 0 Z " fill="#387859" transform="translate(1339,576)"/>
<path d="M0 0 C5.75 0.75 5.75 0.75 8 3 C7 6 7 6 5 7 C4.53348793 9.12576782 4.53348793 9.12576782 4.375 11.5625 C4.30023437 12.38878906 4.22546875 13.21507812 4.1484375 14.06640625 C4.09945313 14.70449219 4.05046875 15.34257813 4 16 C2.35 15.67 0.7 15.34 -1 15 C-0.67 16.65 -0.34 18.3 0 20 C-1.32 19.34 -2.64 18.68 -4 18 C-4.50910404 13.72352604 -4.27301384 12.35001774 -1.5625 8.875 C-0.716875 7.92625 0.12875 6.9775 1 6 C1.85279338 3.78264561 1.85279338 3.78264561 2 2 C1.34 2 0.68 2 0 2 C0 1.34 0 0.68 0 0 Z " fill="#186341" transform="translate(1346,585)"/>
<path d="M0 0 C3.71323586 0.50178863 5.66276162 1.02533297 8 4 C9.75 6.5625 9.75 6.5625 11 9 C10.67 9.66 10.34 10.32 10 11 C9.01 11.33 8.02 11.66 7 12 C6.01 11.34 5.02 10.68 4 10 C3.01 10.33 2.02 10.66 1 11 C-1.78637633 6.8204355 -0.79562512 4.85331323 0 0 Z " fill="#115E3A" transform="translate(904,631)"/>
<path d="M0 0 C-1.625 2.0625 -1.625 2.0625 -4 4 C-6.625 3.6875 -6.625 3.6875 -10 3 C-13.352901 3.18069526 -16.67036562 3.57228017 -20 4 C-20 4.99 -20 5.98 -20 7 C-17.36 7.66 -14.72 8.32 -12 9 C-12 9.33 -12 9.66 -12 10 C-17.28 10 -22.56 10 -28 10 C-28 7 -28 7 -25.515625 4.390625 C-21.80904423 1.4854671 -18.3454824 1.06983211 -13.75 0.75 C-1.23735051 -0.37120515 -1.23735051 -0.37120515 0 0 Z " fill="#276D4D" transform="translate(1164,696)"/>
<path d="M0 0 C3.5 0.1875 3.5 0.1875 5.5 1.1875 C5.17842796 4.16204134 4.87860258 5.78085278 2.8125 8 C-0.10024146 9.4957321 -2.26999584 9.40772756 -5.5 9.1875 C-5.83 9.8475 -6.16 10.5075 -6.5 11.1875 C-6.17 9.8675 -5.84 8.5475 -5.5 7.1875 C-3.85 6.8575 -2.2 6.5275 -0.5 6.1875 C-0.17 5.1975 0.16 4.2075 0.5 3.1875 C-1.15 3.1875 -2.8 3.1875 -4.5 3.1875 C-4.5 3.8475 -4.5 4.5075 -4.5 5.1875 C-7.47 5.1875 -10.44 5.1875 -13.5 5.1875 C-13.17 3.8675 -12.84 2.5475 -12.5 1.1875 C-11.84 1.5175 -11.18 1.8475 -10.5 2.1875 C-10.83 2.8475 -11.16 3.5075 -11.5 4.1875 C-7.22378623 2.88604364 -4.24404368 0.22735948 0 0 Z " fill="#4A846A" transform="translate(1266.5,585.8125)"/>
<path d="M0 0 C0.7425 0.598125 1.485 1.19625 2.25 1.8125 C12.9602658 8.96959705 28.21130276 8.14367534 40.5 8.0625 C41.799375 8.05798828 43.09875 8.05347656 44.4375 8.04882812 C47.62504825 8.0371092 50.81249955 8.02070219 54 8 C54 8.33 54 8.66 54 9 C34.93618524 13.03398128 13.44483144 10.35898173 -4 2 C-2.68 1.34 -1.36 0.68 0 0 Z " fill="#88AF9F" transform="translate(960,696)"/>
<path d="M0 0 C2.10323534 0.0659735 4.20835724 0.08562245 6.3125 0.0625 C7.38113281 0.05347656 8.44976563 0.04445313 9.55078125 0.03515625 C10.76314453 0.01775391 10.76314453 0.01775391 12 0 C10 2 10 2 8.0546875 2.1953125 C6.03645833 2.13020833 4.01822917 2.06510417 2 2 C2 2.66 2 3.32 2 4 C-2.92737019 5.97094808 -6.78020872 6.1799928 -12 6 C-11.67 5.34 -11.34 4.68 -11 4 C-9.68 4 -8.36 4 -7 4 C-7 2.68 -7 1.36 -7 0 C-4.2970055 -1.35149725 -2.94048579 -0.60136874 0 0 Z " fill="#38795C" transform="translate(1064,690)"/>
<path d="M0 0 C5.445 0.495 5.445 0.495 11 1 C6.65946782 4.25539913 4.60333406 5.17519935 -0.60546875 4.9140625 C-1.50716797 4.87023437 -2.40886719 4.82640625 -3.33789062 4.78125 C-4.27826172 4.7296875 -5.21863281 4.678125 -6.1875 4.625 C-7.10853516 4.58117187 -8.02957031 4.53734375 -8.97851562 4.4921875 C-14.36288259 4.21704597 -19.65974301 3.74048217 -25 3 C-25 2.67 -25 2.34 -25 2 C-23.04707031 2.01740234 -23.04707031 2.01740234 -21.0546875 2.03515625 C-19.32812644 2.04453973 -17.60156382 2.05363934 -15.875 2.0625 C-15.0190625 2.07087891 -14.163125 2.07925781 -13.28125 2.08789062 C-8.73321589 2.10538306 -4.47616836 1.93192358 0 1 C0 0.67 0 0.34 0 0 Z " fill="#206848" transform="translate(1201,665)"/>
<path d="M0 0 C4.4652278 0.59760192 8.25765026 1.77836059 12.4375 3.4375 C19.91062728 6.19705394 27.07793664 7.2566131 35 8 C35 8.33 35 8.66 35 9 C29.21200712 9.18670945 24.15463044 8.75968322 18.5078125 7.51171875 C14.692771 6.73326013 10.87368058 6.37487231 7 6 C7 5.34 7 4.68 7 4 C5.68 4 4.36 4 3 4 C1.25 2 1.25 2 0 0 Z M5 6 C7 7 7 7 7 7 Z " fill="#8FB3A1" transform="translate(952,677)"/>
<path d="M0 0 C0.33 0 0.66 0 1 0 C1.64323227 8.07613852 -0.1082716 14.48666996 -3 22 C-4.98616822 18.43546996 -4.89231469 16.96584309 -4 13 C-4.20625 12.360625 -4.4125 11.72125 -4.625 11.0625 C-5.37987654 6.91067905 -2.2166321 3.32494816 0 0 Z " fill="#1B6241" transform="translate(1271,408)"/>
<path d="M0 0 C2 2 2 2 2.265625 4.3125 C2.26046875 5.199375 2.2553125 6.08625 2.25 7 C2.25515625 7.886875 2.2603125 8.77375 2.265625 9.6875 C2 12 2 12 0 14 C-2.625 14.125 -2.625 14.125 -5 14 C-6.35439668 11.29120665 -6.06501451 8.99066732 -6 6 C-5.01 6.495 -5.01 6.495 -4 7 C-3.34 6.01 -2.68 5.02 -2 4 C-1.34 5.65 -0.68 7.3 0 9 C0 6.03 0 3.06 0 0 Z " fill="#2E7152" transform="translate(1178,724)"/>
<path d="M0 0 C0.33 0 0.66 0 1 0 C1 5.94 1 11.88 1 18 C2.32 17.67 3.64 17.34 5 17 C5.33 17.66 5.66 18.32 6 19 C4.78515625 21.6015625 4.78515625 21.6015625 3.0625 24.625 C2.21365234 26.12933594 2.21365234 26.12933594 1.34765625 27.6640625 C0.90292969 28.43492187 0.45820312 29.20578125 0 30 C-0.33 30 -0.66 30 -1 30 C-0.67 20.1 -0.34 10.2 0 0 Z " fill="#CDD8D2" transform="translate(896,296)"/>
<path d="M0 0 C0.33 0.66 0.66 1.32 1 2 C-1.2458535 6.91280454 -5.1593995 10.32597976 -9 14 C-9.66 14.66 -10.32 15.32 -11 16 C-11.66 16 -12.32 16 -13 16 C-14.66965451 16.31802943 -16.33678518 16.64984951 -18 17 C-16.22113307 13.44226614 -12.63795695 12.21265232 -9 11 C-9 10.34 -9 9.68 -9 9 C-8.34 9 -7.68 9 -7 9 C-6.773125 8.443125 -6.54625 7.88625 -6.3125 7.3125 C-4.64103234 4.36753316 -2.44723648 2.31843456 0 0 Z " fill="#BBD3C7" transform="translate(1239,696)"/>
<path d="M0 0 C0.66 0 1.32 0 2 0 C2.125 2.375 2.125 2.375 2 5 C1.34 5.66 0.68 6.32 0 7 C-6.27495722 6.77181974 -6.27495722 6.77181974 -8.9375 3.9375 C-9.4634375 2.9784375 -9.4634375 2.9784375 -10 2 C-9.04287109 1.90912109 -9.04287109 1.90912109 -8.06640625 1.81640625 C-6.82697266 1.69072266 -6.82697266 1.69072266 -5.5625 1.5625 C-4.73878906 1.48128906 -3.91507813 1.40007813 -3.06640625 1.31640625 C-1.01337975 1.21069185 -1.01337975 1.21069185 0 0 Z " fill="#24694A" transform="translate(1191,718)"/>
<path d="M0 0 C0.33 1.32 0.66 2.64 1 4 C0.34 4 -0.32 4 -1 4 C-0.72382467 5.94074861 -0.72382467 5.94074861 0 8 C3.4352048 10.29013653 4.985331 10.17842973 9 10 C5.86730295 13.13269705 3.02671577 13.05494397 -1.25 13.0625 C-3.10625 13.0315625 -3.10625 13.0315625 -5 13 C-4.39254603 8.14036821 -2.27241033 4.2594482 0 0 Z " fill="#C1D7CB" transform="translate(1279,624)"/>
<path d="M0 0 C1.65 0.33 3.3 0.66 5 1 C4.67 4.96 4.34 8.92 4 13 C3.01 13.33 2.02 13.66 1 14 C0.92652344 13.04287109 0.92652344 13.04287109 0.8515625 12.06640625 C0.77679687 11.24011719 0.70203125 10.41382813 0.625 9.5625 C0.55539062 8.73878906 0.48578125 7.91507813 0.4140625 7.06640625 C0.27742188 6.38449219 0.14078125 5.70257812 0 5 C-0.66 4.67 -1.32 4.34 -2 4 C-1.34 2.68 -0.68 1.36 0 0 Z " fill="#216949" transform="translate(1455,625)"/>
<path d="M0 0 C0.33 0 0.66 0 1 0 C1 4.29 1 8.58 1 13 C1.33 11.35 1.66 9.7 2 8 C2.33 8 2.66 8 3 8 C3.08131463 9.43655854 3.13933559 10.8744483 3.1875 12.3125 C3.22230469 13.11300781 3.25710938 13.91351563 3.29296875 14.73828125 C2.93021568 17.53873497 2.09500088 18.18906704 0 20 C-0.66 20.99 -1.32 21.98 -2 23 C-1.85865273 20.10388456 -1.7120847 17.2081919 -1.5625 14.3125 C-1.52318359 13.49587891 -1.48386719 12.67925781 -1.44335938 11.83789062 C-1.23101997 7.80344189 -0.95552078 3.94252691 0 0 Z " fill="#175F3F" transform="translate(1292,368)"/>
<path d="M0 0 C1.32 0.33 2.64 0.66 4 1 C3.01 1.33 2.02 1.66 1 2 C1.33 4.97 1.66 7.94 2 11 C1.34 11 0.68 11 0 11 C-0.33 11.99 -0.66 12.98 -1 14 C-1.99 14 -2.98 14 -4 14 C-4 11.36 -4 8.72 -4 6 C-3.01 6 -2.02 6 -1 6 C-0.67 4.02 -0.34 2.04 0 0 Z " fill="#266A4C" transform="translate(1456,651)"/>
<path d="M0 0 C3.81311305 1.4980087 5.72483551 3.62648024 8 7 C8.75 9.8125 8.75 9.8125 9 12 C7.68 12.33 6.36 12.66 5 13 C4.35309078 11.3962669 3.70751236 9.79199694 3.0625 8.1875 C2.70285156 7.29417969 2.34320312 6.40085937 1.97265625 5.48046875 C1.26386514 3.6729091 0.6139753 1.84192591 0 0 Z " fill="#115A39" transform="translate(1262,394)"/>
<path d="M0 0 C0.33 0 0.66 0 1 0 C2.25 7.625 2.25 7.625 0 11 C0.30840599 13.15274948 0.30840599 13.15274948 1 15 C0.01 15.495 0.01 15.495 -1 16 C-3.00007696 11.87484127 -3.41508447 8.5659292 -3 4 C-1.5625 1.5625 -1.5625 1.5625 0 0 Z " fill="#0D5636" transform="translate(1085,173)"/>
<path d="M0 0 C1.32 0 2.64 0 4 0 C4.99 1.98 5.98 3.96 7 6 C6.01 6.99 5.02 7.98 4 9 C2.0625 8.375 2.0625 8.375 0 7 C-0.8125 3.9375 -0.8125 3.9375 -1 1 C-0.67 0.67 -0.34 0.34 0 0 Z " fill="#0C5A37" transform="translate(1339,576)"/>
<path d="M0 0 C-0.99 0.33 -1.98 0.66 -3 1 C-3 1.99 -3 2.98 -3 4 C-2.34 4.33 -1.68 4.66 -1 5 C-2.32 5.33 -3.64 5.66 -5 6 C-5 5.34 -5 4.68 -5 4 C-5.99 4.33 -6.98 4.66 -8 5 C-9.67004829 4.68404492 -11.33637583 4.34820041 -13 4 C-14.9996441 3.96227087 -17.00054061 3.95350094 -19 4 C-15.58390049 2.07318525 -12.18517226 1.19408613 -8.375 0.3125 C-7.22773437 0.04050781 -6.08046875 -0.23148437 -4.8984375 -0.51171875 C-2 -1 -2 -1 0 0 Z " fill="#1B5E41" transform="translate(971,409)"/>
<path d="M0 0 C0.99 0.99 1.98 1.98 3 3 C1.68 6.63 0.36 10.26 -1 14 C-1.66 14 -2.32 14 -3 14 C-3 3 -3 3 0 0 Z " fill="#0D5836" transform="translate(900,368)"/>
<path d="M0 0 C-1.625 2.0625 -1.625 2.0625 -4 4 C-6.00481172 3.69694707 -8.0042201 3.35773413 -10 3 C-12.46129977 3.08169196 -14.9211738 3.22915627 -17.375 3.4375 C-19.24285156 3.59025391 -19.24285156 3.59025391 -21.1484375 3.74609375 C-22.08945313 3.82988281 -23.03046875 3.91367187 -24 4 C-21.11594007 1.11594007 -17.88526388 1.32806411 -14 0.9375 C-1.33886256 -0.40165877 -1.33886256 -0.40165877 0 0 Z " fill="#37785B" transform="translate(1164,696)"/>
<path d="M0 0 C0.33 0.66 0.66 1.32 1 2 C0.67 2.66 0.34 3.32 0 4 C0.66 4 1.32 4 2 4 C2.33 3.01 2.66 2.02 3 1 C2.67 4.63 2.34 8.26 2 12 C0.35 12.66 -1.3 13.32 -3 14 C-2.69249629 11.85344499 -2.3788634 9.70776715 -2.0625 7.5625 C-1.88847656 6.36753906 -1.71445313 5.17257812 -1.53515625 3.94140625 C-1 1 -1 1 0 0 Z " fill="#16603F" transform="translate(1133,300)"/>
<path d="M0 0 C0.99 0 1.98 0 3 0 C4.33650858 4.00952575 4.20225023 7.82016197 4 12 C3.34 12.66 2.68 13.32 2 14 C1.93941406 13.37351562 1.87882812 12.74703125 1.81640625 12.1015625 C1.73261719 11.28429687 1.64882812 10.46703125 1.5625 9.625 C1.48128906 8.81289063 1.40007812 8.00078125 1.31640625 7.1640625 C1.10909886 4.95727195 1.10909886 4.95727195 0 3 C-1.32 3.99 -2.64 4.98 -4 6 C-2.84826645 3.53199953 -1.95216435 1.95216435 0 0 Z " fill="#699A85" transform="translate(1361,570)"/>
<path d="M0 0 C0.99 0.495 0.99 0.495 2 1 C1.67 2.65 1.34 4.3 1 6 C1.66 6 2.32 6 3 6 C3.66 8.31 4.32 10.62 5 13 C6.65 13.33 8.3 13.66 10 14 C10 14.66 10 15.32 10 16 C6.5632706 15.14081765 4.31687594 14.27518174 1.625 11.9375 C-0.6047762 7.90675071 -0.35345305 4.5065264 0 0 Z " fill="#1D5C3F" transform="translate(827,295)"/>
<path d="M0 0 C2.31 0.66 4.62 1.32 7 2 C7 1.34 7 0.68 7 0 C8.98 0 10.96 0 13 0 C13 0.99 13 1.98 13 3 C13.66 3.33 14.32 3.66 15 4 C5.23625255 4.38289206 5.23625255 4.38289206 1 2 C0.67 1.34 0.34 0.68 0 0 Z " fill="#256C4E" transform="translate(1412,658)"/>
<path d="M0 0 C0.66 1.32 1.32 2.64 2 4 C1.67 4.99 1.34 5.98 1 7 C1 6.34 1 5.68 1 5 C-2.36591866 6.44253657 -4.51047079 8.33264727 -7 11 C-7.66 10.34 -8.32 9.68 -9 9 C-6.03 6.03 -3.06 3.06 0 0 Z " fill="#0D5735" transform="translate(924,288)"/>
<path d="M0 0 C0.7425 0.598125 1.485 1.19625 2.25 1.8125 C6.93969489 4.99560208 12.53953984 5.83368812 18 7 C12.17260312 9.06328885 5.3849724 6.39271005 -0.1171875 4.12890625 C-1.43740549 3.46879726 -2.72502038 2.74373811 -4 2 C-2.68 1.34 -1.36 0.68 0 0 Z " fill="#5A9078" transform="translate(960,696)"/>
<path d="M0 0 C-0.33 1.32 -0.66 2.64 -1 4 C-1 3.01 -1 2.02 -1 1 C-2.0828125 1.6496875 -2.0828125 1.6496875 -3.1875 2.3125 C-5.00449845 3.40269907 -6.83722367 4.46728763 -8.6875 5.5 C-11.24932514 6.94477638 -11.24932514 6.94477638 -13 10 C-12.84817368 7.34303932 -12.52675976 5.55765476 -10.66796875 3.58984375 C-4.68300986 -1.40490296 -4.68300986 -1.40490296 0 0 Z " fill="#5D8C77" transform="translate(1260,572)"/>
<path d="M0 0 C6.75 0.75 6.75 0.75 9 3 C6.03 2.505 6.03 2.505 3 2 C3.495 2.350625 3.99 2.70125 4.5 3.0625 C6.73063966 5.94374289 6.19980621 8.47009026 6 12 C5.01 12 4.02 12 3 12 C3.66 10.02 4.32 8.04 5 6 C2.525 5.01 2.525 5.01 0 4 C0 2.68 0 1.36 0 0 Z " fill="#A1C3B4" transform="translate(1188,712)"/>
<path d="M0 0 C2.46800047 1.15173355 4.04783565 2.04783565 6 4 C6.26991906 6.68839385 6.08737357 9.29141936 6 12 C5.34 12 4.68 12 4 12 C3.855625 11.21625 3.71125 10.4325 3.5625 9.625 C3.12201075 7.03578982 3.12201075 7.03578982 2 5 C1.34 5 0.68 5 0 5 C0 3.35 0 1.7 0 0 Z " fill="#105B38" transform="translate(894,618)"/>
<path d="M0 0 C0.99 0.33 1.98 0.66 3 1 C2.06409496 2.1055189 1.12620142 3.20935453 0.1875 4.3125 C-0.33457031 4.92738281 -0.85664062 5.54226563 -1.39453125 6.17578125 C-2.87172469 7.85424679 -4.40039131 9.43882034 -6 11 C-6.8125 9.3125 -6.8125 9.3125 -7 7 C-4.6875 4.375 -4.6875 4.375 -2 2 C-1.34 1.34 -0.68 0.68 0 0 Z " fill="#115939" transform="translate(1344,329)"/>
<path d="M0 0 C-3 2 -3 2 -6 2 C-6.33 2.99 -6.66 3.98 -7 5 C-11.455 5.495 -11.455 5.495 -16 6 C-16 5.34 -16 4.68 -16 4 C-15.39671875 3.80664062 -14.7934375 3.61328125 -14.171875 3.4140625 C-13.37265625 3.15367187 -12.5734375 2.89328125 -11.75 2.625 C-10.96109375 2.36976563 -10.1721875 2.11453125 -9.359375 1.8515625 C-6.98832808 1.06567002 -6.98832808 1.06567002 -4.890625 -0.1640625 C-3 -1 -3 -1 0 0 Z " fill="#6A9C86" transform="translate(1120,645)"/>
<path d="M0 0 C0.33 0.66 0.66 1.32 1 2 C0.33333333 3.33333333 -0.33333333 4.66666667 -1 6 C-0.67 6.66 -0.34 7.32 0 8 C-3.4375 7.1875 -3.4375 7.1875 -7 6 C-7.33 5.01 -7.66 4.02 -8 3 C-6.865625 2.690625 -5.73125 2.38125 -4.5625 2.0625 C-1.21224901 1.37075469 -1.21224901 1.37075469 0 0 Z " fill="#CCE0D5" transform="translate(1269,592)"/>
<path d="M0 0 C0.66 0 1.32 0 2 0 C2 1.32 2 2.64 2 4 C3.32 4 4.64 4 6 4 C4.25 9.75 4.25 9.75 2 12 C0.26043342 10.26043342 0.62809614 7.8063378 0.4375 5.4375 C0.35371094 4.42558594 0.26992187 3.41367187 0.18359375 2.37109375 C0.12300781 1.58863281 0.06242187 0.80617188 0 0 Z " fill="#1A6342" transform="translate(1432,321)"/>
<path d="M0 0 C1 3 1 3 0.1875 5.625 C-1 8 -1 8 -3 9 C-3.99 6.69 -4.98 4.38 -6 2 C-2.25 0 -2.25 0 0 0 Z " fill="#125A39" transform="translate(1094,193)"/>
<path d="M0 0 C0.66 0.33 1.32 0.66 2 1 C1.34 1.66 0.68 2.32 0 3 C-0.46006346 5.20250992 -0.46006346 5.20250992 -0.625 7.625 C-0.69976563 8.44226563 -0.77453125 9.25953125 -0.8515625 10.1015625 C-0.90054687 10.72804688 -0.94953125 11.35453125 -1 12 C-2.9375 11.6875 -2.9375 11.6875 -5 11 C-5.33 10.01 -5.66 9.02 -6 8 C-5.34 8 -4.68 8 -4 8 C-3.71125 7.05125 -3.4225 6.1025 -3.125 5.125 C-2 2 -2 2 0 0 Z " fill="#387B5D" transform="translate(1414,616)"/>
<path d="M0 0 C0.66 0.33 1.32 0.66 2 1 C1.34 1.66 0.68 2.32 0 3 C-0.99 3 -1.98 3 -3 3 C-3 3.66 -3 4.32 -3 5 C-4.625 7.1875 -4.625 7.1875 -7 9 C-10.25 8.75 -10.25 8.75 -13 8 C-11.48339626 4.96679252 -9.05369111 4.30987391 -6.0625 2.8125 C-4.98097656 2.26207031 -3.89945313 1.71164062 -2.78515625 1.14453125 C-1.86605469 0.76683594 -0.94695312 0.38914062 0 0 Z " fill="#437F64" transform="translate(1065,667)"/>
<path d="M0 0 C1 3 1 3 1 6 C0.01 6.495 0.01 6.495 -1 7 C-0.34 7.66 0.32 8.32 1 9 C0 10 0 10 -2.5625 10.0625 C-3.366875 10.041875 -4.17125 10.02125 -5 10 C-3.84414715 6.08788267 -2.64465038 3.1254959 0 0 Z " fill="#BDD5C9" transform="translate(1260,580)"/>
<path d="M0 0 C0 0.66 0 1.32 0 2 C-0.66 2 -1.32 2 -2 2 C-2.33 3.32 -2.66 4.64 -3 6 C-6.465 4.02 -6.465 4.02 -10 2 C-10 1.67 -10 1.34 -10 1 C-6.59437148 0.22157062 -3.49234244 -0.09978121 0 0 Z " fill="#115B3A" transform="translate(996,320)"/>
<path d="M0 0 C4.455 1.98 4.455 1.98 9 4 C9 4.33 9 4.66 9 5 C2.25 6.125 2.25 6.125 0 5 C0 3.35 0 1.7 0 0 Z " fill="#155B3C" transform="translate(1465,273)"/>
<path d="M0 0 C2.375 0.3125 2.375 0.3125 5 1 C5.66 1.99 6.32 2.98 7 4 C9.05003955 5.19232613 9.05003955 5.19232613 11 6 C9 7 9 7 5 7 C4.71125 6.195625 4.4225 5.39125 4.125 4.5625 C3.26737432 1.8673532 3.26737432 1.8673532 1 1 C1 3.31 1 5.62 1 8 C0.67 8 0.34 8 0 8 C0 5.36 0 2.72 0 0 Z " fill="#61937D" transform="translate(1223,568)"/>
<path d="M0 0 C0.66 0.33 1.32 0.66 2 1 C1.67 3.64 1.34 6.28 1 9 C0.01 8.67 -0.98 8.34 -2 8 C-2.66 9.98 -3.32 11.96 -4 14 C-4.33 13.34 -4.66 12.68 -5 12 C-4.26821134 9.92803369 -3.44100997 7.8891448 -2.5625 5.875 C-2.08941406 4.77929688 -1.61632813 3.68359375 -1.12890625 2.5546875 C-0.75636719 1.71164062 -0.38382813 0.86859375 0 0 Z " fill="#3F7C60" transform="translate(1398,556)"/>
<path d="M0 0 C-0.66 1.32 -1.32 2.64 -2 4 C-7.75 3.25 -7.75 3.25 -10 1 C-3.71428571 -1.42857143 -3.71428571 -1.42857143 0 0 Z " fill="#1B6342" transform="translate(1432,316)"/>
<path d="M0 0 C5.01113235 1.4317521 6.94469549 3.98445693 10 8 C9.01 8.33 8.02 8.66 7 9 C4.03595495 6.19195732 1.55500981 3.81684226 0 0 Z " fill="#155938" transform="translate(880,269)"/>
<path d="M0 0 C0.99 0.33 1.98 0.66 3 1 C3 1.66 3 2.32 3 3 C6.465 2.505 6.465 2.505 10 2 C9.34 4.64 8.68 7.28 8 10 C6 8 6 8 5 5 C4.01 4.67 3.02 4.34 2 4 C0.8125 1.9375 0.8125 1.9375 0 0 Z " fill="#347657" transform="translate(1402,646)"/>
<path d="M0 0 C2 1 2 1 2 1 Z M3 0 C3.99 0.33 4.98 0.66 6 1 C4.95125002 3.62187494 4.35068687 4.79371361 1.875 6.25 C1.25625 6.4975 0.6375 6.745 0 7 C0 6.34 0 5.68 0 5 C-0.66 4.67 -1.32 4.34 -2 4 C-1.34 3.01 -0.68 2.02 0 1 C0 1.66 0 2.32 0 3 C0.99 2.01 1.98 1.02 3 0 Z " fill="#155C3C" transform="translate(890,571)"/>
<path d="M0 0 C0 0.66 0 1.32 0 2 C-3.00440021 4.00293347 -4.70993945 4.49271626 -8.1875 5.125 C-9.08855469 5.29257812 -9.98960938 5.46015625 -10.91796875 5.6328125 C-11.60503906 5.75398437 -12.29210938 5.87515625 -13 6 C-12.67 5.01 -12.34 4.02 -12 3 C-9.78515625 2.05078125 -9.78515625 2.05078125 -7.0625 1.3125 C-6.16660156 1.06113281 -5.27070312 0.80976562 -4.34765625 0.55078125 C-2 0 -2 0 0 0 Z " fill="#5A8C76" transform="translate(1428,538)"/>
<path d="M0 0 C0 0.33 0 0.66 0 1 C-5.36095333 2.12862175 -10.55306686 2.09688221 -16 2 C-15 0 -15 0 -13.0625 -0.6875 C-8.63968751 -1.1388074 -4.39657032 -0.55490693 0 0 Z " fill="#0F5839" transform="translate(1478,460)"/>
<path d="M0 0 C0.33 0.66 0.66 1.32 1 2 C1.66 2 2.32 2 3 2 C3 1.34 3 0.68 3 0 C4.32 0.66 5.64 1.32 7 2 C5.02 3.32 3.04 4.64 1 6 C0.01 5.01 -0.98 4.02 -2 3 C-1.34 2.01 -0.68 1.02 0 0 Z " fill="#145C3C" transform="translate(1396,442)"/>
<path d="M0 0 C0.99 0 1.98 0 3 0 C2.25 5.75 2.25 5.75 0 8 C-0.66 7.67 -1.32 7.34 -2 7 C-1.34 4.69 -0.68 2.38 0 0 Z " fill="#0E5735" transform="translate(900,560)"/>
<path d="M0 0 C0.515625 0.37125 1.03125 0.7425 1.5625 1.125 C0.9025 1.125 0.2425 1.125 -0.4375 1.125 C-0.4375 1.785 -0.4375 2.445 -0.4375 3.125 C-3.0775 3.125 -5.7175 3.125 -8.4375 3.125 C-8.7675 2.465 -9.0975 1.805 -9.4375 1.125 C-3.0375 -1.09038462 -3.0375 -1.09038462 0 0 Z " fill="#0B5836" transform="translate(1426.4375,313.875)"/>
<path d="M0 0 C-5.625 3.875 -5.625 3.875 -9 5 C-9.66 4.67 -10.32 4.34 -11 4 C-11 3.34 -11 2.68 -11 2 C-3.57142857 -1.57142857 -3.57142857 -1.57142857 0 0 Z " fill="#588E75" transform="translate(1349,617)"/>
<path d="M0 0 C0.66 0.99 1.32 1.98 2 3 C0.68 5.64 -0.64 8.28 -2 11 C-2.66 10.34 -3.32 9.68 -4 9 C-4 7.68 -4 6.36 -4 5 C-3.01 5 -2.02 5 -1 5 C-0.67 3.35 -0.34 1.7 0 0 Z " fill="#12573A" transform="translate(1024,398)"/>
<path d="M0 0 C5.75 0.875 5.75 0.875 8 2 C8 2.66 8 3.32 8 4 C8.66 4.33 9.32 4.66 10 5 C9.01 5.33 8.02 5.66 7 6 C7 5.34 7 4.68 7 4 C5.68 4 4.36 4 3 4 C1.25 2 1.25 2 0 0 Z M5 6 C7 7 7 7 7 7 Z " fill="#4D866C" transform="translate(952,677)"/>
<path d="M0 0 C4.11282435 -0.42182814 7.12322883 0.70774294 11 2 C8.35541621 3.32229189 6.32238699 3.09677194 3.375 3.0625 C2.37210938 3.05347656 1.36921875 3.04445313 0.3359375 3.03515625 C-0.43492188 3.02355469 -1.20578125 3.01195312 -2 3 C-1.34 2.01 -0.68 1.02 0 0 Z " fill="#E0E9E4" transform="translate(1277,633)"/>
<path d="M0 0 C0.99 0.33 1.98 0.66 3 1 C3.33 2.65 3.66 4.3 4 6 C3.34 6 2.68 6 2 6 C1.67 6.99 1.34 7.98 1 9 C0 8 0 8 -0.09765625 6.15234375 C-0.06510417 4.1015625 -0.03255208 2.05078125 0 0 Z " fill="#1C6643" transform="translate(1224,569)"/>
<path d="M0 0 C5.94 1.485 5.94 1.485 12 3 C7.82091936 5.08954032 7.19589427 5.16552619 3 4 C3 3.34 3 2.68 3 2 C2.01 2 1.02 2 0 2 C0 1.34 0 0.68 0 0 Z " fill="#E7F0EB" transform="translate(912,458)"/>
<path d="M0 0 C0.66 1.32 1.32 2.64 2 4 C-0.375 5.5625 -0.375 5.5625 -3 7 C-3.66 6.67 -4.32 6.34 -5 6 C-3.35 4.02 -1.7 2.04 0 0 Z M-6 7 C-5.67 7.66 -5.34 8.32 -5 9 C-6.32 9.33 -7.64 9.66 -9 10 C-8.01 9.01 -7.02 8.02 -6 7 Z " fill="#DEEAE3" transform="translate(1413,433)"/>
<path d="M0 0 C0.66 0.33 1.32 0.66 2 1 C1.01 3.97 0.02 6.94 -1 10 C-1.66 10 -2.32 10 -3 10 C-2.88637738 8.5199159 -2.75877092 7.04089926 -2.625 5.5625 C-2.55539062 4.73878906 -2.48578125 3.91507812 -2.4140625 3.06640625 C-2.27742188 2.38449219 -2.14078125 1.70257813 -2 1 C-1.34 0.67 -0.68 0.34 0 0 Z " fill="#CCCCCC" transform="translate(1586,349)"/>
<path d="M0 0 C9.59453303 1.74259681 9.59453303 1.74259681 13 5 C11.02 5.33 9.04 5.66 7 6 C7 5.01 7 4.02 7 3 C4.69 2.34 2.38 1.68 0 1 C0 0.67 0 0.34 0 0 Z " fill="#37785B" transform="translate(1265,599)"/>
<path d="M0 0 C2.69082872 0.17635452 5.32851446 0.61835921 8 1 C5.61426621 2.89213369 3.92824652 4.02391783 1 5 C0.34 3.68 -0.32 2.36 -1 1 C-0.67 0.67 -0.34 0.34 0 0 Z " fill="#0D5836" transform="translate(972,450)"/>
<path d="M0 0 C0.33 0.66 0.66 1.32 1 2 C1.66 2 2.32 2 3 2 C2.34 3.65 1.68 5.3 1 7 C0.01 7 -0.98 7 -2 7 C-2 5.35 -2 3.7 -2 2 C-1.34 2 -0.68 2 0 2 C0 1.34 0 0.68 0 0 Z " fill="#115836" transform="translate(1012,416)"/>
<path d="M0 0 C0 0.66 0 1.32 0 2 C-0.99 2 -1.98 2 -3 2 C-3.061875 2.61875 -3.12375 3.2375 -3.1875 3.875 C-4 6 -4 6 -6.5625 7.25 C-7.366875 7.4975 -8.17125 7.745 -9 8 C-8.67 7.01 -8.34 6.02 -8 5 C-7.34 5 -6.68 5 -6 5 C-6 4.34 -6 3.68 -6 3 C-5.34 3 -4.68 3 -4 3 C-4 2.34 -4 1.68 -4 1 C-2 0 -2 0 0 0 Z " fill="#558D72" transform="translate(1154,715)"/>
<path d="M0 0 C2.31 0.33 4.62 0.66 7 1 C3.59648662 3.03219488 0.6767073 3.36891039 -3.25 3.625 C-4.86648438 3.73714844 -4.86648438 3.73714844 -6.515625 3.8515625 C-7.33546875 3.90054688 -8.1553125 3.94953125 -9 4 C-5.78360346 2.25434889 -3.67986596 1.795563 0 2 C0 1.34 0 0.68 0 0 Z " fill="#347759" transform="translate(1137,668)"/>
<path d="M0 0 C1 4 1 4 -0.4375 6.75 C-1.2109375 7.86375 -1.2109375 7.86375 -2 9 C-2.99 8.67 -3.98 8.34 -5 8 C-3.35 5.36 -1.7 2.72 0 0 Z " fill="#4C846C" transform="translate(1386,584)"/>
<path d="M0 0 C0.66 0.66 1.32 1.32 2 2 C4.57061311 2.64767793 4.57061311 2.64767793 7 3 C4.08235 4.9451 2.37462715 5.45276317 -1 6 C-0.67 4.02 -0.34 2.04 0 0 Z " fill="#39765D" transform="translate(1143,728)"/>
<path d="M0 0 C0.99 0.33 1.98 0.66 3 1 C1.35 2.98 -0.3 4.96 -2 7 C-2.66 5.68 -3.32 4.36 -4 3 C-2.68 2.67 -1.36 2.34 0 2 C0 1.34 0 0.68 0 0 Z " fill="#1D6544" transform="translate(1157,721)"/>
<path d="M0 0 C0.33 0.66 0.66 1.32 1 2 C1.66 2.33 2.32 2.66 3 3 C1.02 4.32 -0.96 5.64 -3 7 C-3 6.34 -3 5.68 -3 5 C-3.99 4.67 -4.98 4.34 -6 4 C-5.195625 3.525625 -4.39125 3.05125 -3.5625 2.5625 C-1.15246512 1.23099846 -1.15246512 1.23099846 0 0 Z " fill="#135F3D" transform="translate(1227,704)"/>
<path d="M0 0 C1.65 0.33 3.3 0.66 5 1 C4.67 2.98 4.34 4.96 4 7 C3.67 7 3.34 7 3 7 C3 5.35 3 3.7 3 2 C1.35 2.66 -0.3 3.32 -2 4 C-1.34 2.68 -0.68 1.36 0 0 Z " fill="#618E78" transform="translate(1455,625)"/>
<path d="M0 0 C0.66 0.33 1.32 0.66 2 1 C-1.32307692 5.8 -1.32307692 5.8 -4.75 6.8125 C-5.4925 6.874375 -6.235 6.93625 -7 7 C-6.34 6.01 -5.68 5.02 -5 4 C-4.34 4 -3.68 4 -3 4 C-3 3.34 -3 2.68 -3 2 C-2.01 1.34 -1.02 0.68 0 0 Z " fill="#478267" transform="translate(1249,620)"/>
<path d="M0 0 C1.60080151 4.00200378 0.29279692 7.04556236 -1 11 C-1.66 10.67 -2.32 10.34 -3 10 C-2.67 7.69 -2.34 5.38 -2 3 C-1.34 3 -0.68 3 0 3 C0 2.01 0 1.02 0 0 Z " fill="#135838" transform="translate(1499,431)"/>
<path d="M0 0 C1.32 0 2.64 0 4 0 C3.1875 2.9375 3.1875 2.9375 2 6 C1.01 6.33 0.02 6.66 -1 7 C-1.33 5.68 -1.66 4.36 -2 3 C-1.34 3 -0.68 3 0 3 C0 2.01 0 1.02 0 0 Z " fill="#0C5937" transform="translate(1298,425)"/>
<path d="M0 0 C0.66 1.32 1.32 2.64 2 4 C1 6 1 6 -2.0625 7.125 C-3.031875 7.41375 -4.00125 7.7025 -5 8 C-3.35 5.36 -1.7 2.72 0 0 Z " fill="#E3EFEA" transform="translate(1018,414)"/>
<path d="M0 0 C2 3.75 2 3.75 2 6 C1.01 6.33 0.02 6.66 -1 7 C-1.66 5.02 -2.32 3.04 -3 1 C-2.01 0.67 -1.02 0.34 0 0 Z " fill="#115B3A" transform="translate(1468,396)"/>
<path d="M0 0 C0.99 0.33 1.98 0.66 3 1 C4.1875 3.5625 4.1875 3.5625 5 6 C3.02 6 1.04 6 -1 6 C-0.67 4.02 -0.34 2.04 0 0 Z " fill="#155E3D" transform="translate(1297,352)"/>
<path d="M0 0 C0.33 0 0.66 0 1 0 C1 2.64 1 5.28 1 8 C-0.65 8.33 -2.3 8.66 -4 9 C-4.66 8.01 -5.32 7.02 -6 6 C-4.35 6 -2.7 6 -1 6 C-0.67 4.02 -0.34 2.04 0 0 Z " fill="#599177" transform="translate(1356,578)"/>
<path d="M0 0 C0.66 0 1.32 0 2 0 C2 0.66 2 1.32 2 2 C3.29233607 3.37310707 4.62437146 4.71034824 6 6 C2.09161134 6 0.88405893 4.49432124 -2 2 C-1.34 1.34 -0.68 0.68 0 0 Z " fill="#216646" transform="translate(1316,449)"/>
<path d="M0 0 C1.32 0.66 2.64 1.32 4 2 C4 3.32 4 4.64 4 6 C0.535 4.02 0.535 4.02 -3 2 C-2.01 1.34 -1.02 0.68 0 0 Z " fill="#1A6142" transform="translate(845,312)"/>
<path d="M0 0 C-0.66 0 -1.32 0 -2 0 C-2.66 1.98 -3.32 3.96 -4 6 C-4.66 6 -5.32 6 -6 6 C-5.814375 5.38125 -5.62875 4.7625 -5.4375 4.125 C-4.76313824 1.95839822 -4.76313824 1.95839822 -6 0 C-3.50907189 -1.24546405 -2.58919267 -0.7767578 0 0 Z " fill="#0A5835" transform="translate(1384,272)"/>
<path d="M0 0 C1.65 0 3.3 0 5 0 C5.33 1.65 5.66 3.3 6 5 C5.01 5.495 5.01 5.495 4 6 C4 4.68 4 3.36 4 2 C2.35 2 0.7 2 -1 2 C-0.67 1.34 -0.34 0.68 0 0 Z " fill="#BFD9CE" transform="translate(1153,704)"/>
<path d="M0 0 C3.93673644 1.31224548 6.22719294 2.91910327 9 6 C6.69 5.67 4.38 5.34 2 5 C1.34 3.35 0.68 1.7 0 0 Z " fill="#62957E" transform="translate(940,669)"/>
<path d="M0 0 C1.32 0.33 2.64 0.66 4 1 C3.625 3.9375 3.625 3.9375 3 7 C2.01 7.495 2.01 7.495 1 8 C0.67 5.36 0.34 2.72 0 0 Z " fill="#477F64" transform="translate(1344,586)"/>
<path d="M0 0 C0.66 0 1.32 0 2 0 C2 2.31 2 4.62 2 7 C1.67 6.34 1.34 5.68 1 5 C-0.98 5.99 -0.98 5.99 -3 7 C-1.125 2.25 -1.125 2.25 0 0 Z " fill="#BAD3C7" transform="translate(1428,412)"/>
<path d="M0 0 C0.99 0.99 1.98 1.98 3 3 C0.69 4.65 -1.62 6.3 -4 8 C-2.87548273 5.0280615 -1.77706209 2.66559313 0 0 Z " fill="#E6ECE7" transform="translate(915,348)"/>
<path d="M0 0 C0 3 0 3 -2.5 5.6875 C-3.325 6.450625 -4.15 7.21375 -5 8 C-5.66 7.34 -6.32 6.68 -7 6 C-4.69 4.02 -2.38 2.04 0 0 Z " fill="#B6CFC3" transform="translate(1364,664)"/>
<path d="M0 0 C1.98 0 3.96 0 6 0 C3.75 2.0625 3.75 2.0625 1 4 C-1.3125 3.75 -1.3125 3.75 -3 3 C-2.01 2.67 -1.02 2.34 0 2 C0 1.34 0 0.68 0 0 Z " fill="#A2C3B3" transform="translate(1328,622)"/>
<path d="M0 0 C2.0625 0.4375 2.0625 0.4375 4 1 C3.01 1.495 3.01 1.495 2 2 C2.33 3.98 2.66 5.96 3 8 C2.01 7.67 1.02 7.34 0 7 C-0.38133299 5.0085944 -0.71325582 3.00720923 -1 1 C-0.67 0.67 -0.34 0.34 0 0 Z " fill="#679A84" transform="translate(1339,576)"/>
<path d="M0 0 C0.12375 0.61875 0.2475 1.2375 0.375 1.875 C0.87197356 4.19120832 0.87197356 4.19120832 3 6 C1.35 7.32 -0.3 8.64 -2 10 C-1.125 2.25 -1.125 2.25 0 0 Z " fill="#387A5E" transform="translate(1392,570)"/>
<path d="M0 0 C0.99 0.99 1.98 1.98 3 3 C1.68 3.99 0.36 4.98 -1 6 C-1.66 5.01 -2.32 4.02 -3 3 C-2.01 2.01 -1.02 1.02 0 0 Z " fill="#0F5939" transform="translate(925,330)"/>
<path d="M0 0 C0.33 1.32 0.66 2.64 1 4 C-0.32 4.99 -1.64 5.98 -3 7 C-3.66 6.01 -4.32 5.02 -5 4 C-3.35 2.68 -1.7 1.36 0 0 Z " fill="#1C6042" transform="translate(930,283)"/>
<path d="M0 0 C1.32 0.66 2.64 1.32 4 2 C1.69 3.32 -0.62 4.64 -3 6 C-2.42655063 3.13275314 -2.1385485 2.1385485 0 0 Z " fill="#E4EFE9" transform="translate(1347,284)"/>
<path d="M0 0 C0.99 1.32 1.98 2.64 3 4 C2.34 4 1.68 4 1 4 C0.67 4.66 0.34 5.32 0 6 C-0.99 6 -1.98 6 -3 6 C-1.125 1.125 -1.125 1.125 0 0 Z " fill="#1D6442" transform="translate(835,281)"/>
<path d="M0 0 C1.231394 2.46278801 1.07159196 4.2795055 1 7 C0.01 7 -0.98 7 -2 7 C-2.33 7.66 -2.66 8.32 -3 9 C-2.5020163 5.26512223 -2.12508244 3.18762365 0 0 Z " fill="#578B74" transform="translate(1212,678)"/>
<path d="M0 0 C1.98 0.495 1.98 0.495 4 1 C2.25 4.875 2.25 4.875 0 6 C-1.125 2.25 -1.125 2.25 0 0 Z " fill="#16603F" transform="translate(1442,584)"/>
<path d="M0 0 C0.6875 1.8125 0.6875 1.8125 1 4 C-0.4375 5.75 -0.4375 5.75 -2 7 C-2.33 5.35 -2.66 3.7 -3 2 C-2.01 1.34 -1.02 0.68 0 0 Z " fill="#1B6243" transform="translate(1260,576)"/>
<path d="M0 0 C2.97 1.98 2.97 1.98 6 4 C2.71023192 5.09658936 1.28696233 4.79953138 -2 4 C-1.34 2.68 -0.68 1.36 0 0 Z " fill="#145B3C" transform="translate(890,538)"/>
<path d="M0 0 C0.66 0.99 1.32 1.98 2 3 C1.25 5.625 1.25 5.625 0 8 C-0.99 8.495 -0.99 8.495 -2 9 C-1.34 6.03 -0.68 3.06 0 0 Z " fill="#155A3A" transform="translate(1493,443)"/>
<path d="M0 0 C0.99 0.33 1.98 0.66 3 1 C2.34 2.65 1.68 4.3 1 6 C0.01 5.34 -0.98 4.68 -2 4 C-1.34 2.68 -0.68 1.36 0 0 Z " fill="#115838" transform="translate(1420,419)"/>
<path d="M0 0 C0.99 0.33 1.98 0.66 3 1 C2.01 2.485 2.01 2.485 1 4 C0.60986284 5.9896995 0.26797351 7.99019869 0 10 C-0.33 10 -0.66 10 -1 10 C-1.02689216 8.52093108 -1.04634621 7.04172517 -1.0625 5.5625 C-1.07410156 4.73878906 -1.08570313 3.91507812 -1.09765625 3.06640625 C-1 1 -1 1 0 0 Z " fill="#DEEAE3" transform="translate(1466,376)"/>
<path d="M0 0 C2.125 0.375 2.125 0.375 4 1 C2.68 2.32 1.36 3.64 0 5 C-0.66 4.01 -1.32 3.02 -2 2 C-1.34 1.34 -0.68 0.68 0 0 Z " fill="#145839" transform="translate(932,324)"/>
<path d="M0 0 C1.98 1.65 3.96 3.3 6 5 C5.34 5.66 4.68 6.32 4 7 C1.49962266 4.82575883 0.56371414 3.26954202 0 0 Z " fill="#2B694B" transform="translate(1478,280)"/>
<path d="M0 0 C2.5 1.3125 2.5 1.3125 5 3 C5 3.99 5 4.98 5 6 C2.525 5.01 2.525 5.01 0 4 C0 2.68 0 1.36 0 0 Z " fill="#1B5E3D" transform="translate(1014,275)"/>
<path d="M0 0 C1.32 0.66 2.64 1.32 4 2 C3.34 2.66 2.68 3.32 2 4 C-0.625 3.625 -0.625 3.625 -3 3 C-2.01 2.01 -1.02 1.02 0 0 Z " fill="#1D6544" transform="translate(947,272)"/>
</svg>
